<svg width="330" height="78" viewBox="0 0 330 78" fill="none" xmlns="http://www.w3.org/2000/svg">
<g filter="url(#filter0_d)">
<rect x="4" y="10" width="322" height="60" rx="23" fill="#405BA3"/>
<rect x="4" width="322" height="60" rx="23" fill="#597BD5"/>
<path d="M59.4 36.18C58.3733 36.18 57.4 36.0467 56.48 35.78C55.5733 35.5 54.8333 35.1267 54.26 34.66C53.9533 34.4333 53.8 34.1133 53.8 33.7C53.8 33.42 53.88 33.18 54.04 32.98C54.2133 32.7667 54.4133 32.66 54.64 32.66C54.88 32.66 55.1533 32.7533 55.46 32.94C56.0333 33.3533 56.6333 33.6533 57.26 33.84C57.8867 34.0267 58.58 34.12 59.34 34.12C60.3133 34.12 61.06 33.9533 61.58 33.62C62.1 33.2733 62.36 32.7733 62.36 32.12C62.36 31.6133 62.1133 31.2267 61.62 30.96C61.14 30.68 60.3333 30.4133 59.2 30.16C58.0267 29.9067 57.0733 29.6133 56.34 29.28C55.6067 28.9467 55.0533 28.52 54.68 28C54.3067 27.48 54.12 26.82 54.12 26.02C54.12 25.1933 54.3533 24.4533 54.82 23.8C55.2867 23.1467 55.9333 22.64 56.76 22.28C57.6 21.9067 58.54 21.72 59.58 21.72C61.4867 21.72 63.04 22.2267 64.24 23.24C64.4133 23.3867 64.5333 23.5333 64.6 23.68C64.68 23.8133 64.72 23.9867 64.72 24.2C64.72 24.48 64.6333 24.7267 64.46 24.94C64.3 25.14 64.1067 25.24 63.88 25.24C63.7467 25.24 63.62 25.22 63.5 25.18C63.3933 25.14 63.2467 25.0667 63.06 24.96C62.5133 24.56 61.98 24.2667 61.46 24.08C60.9533 23.88 60.3267 23.78 59.58 23.78C58.6733 23.78 57.9533 23.9667 57.42 24.34C56.9 24.7 56.64 25.2067 56.64 25.86C56.64 26.4067 56.8733 26.8267 57.34 27.12C57.8067 27.4133 58.6 27.6867 59.72 27.94C60.9067 28.2067 61.8667 28.5067 62.6 28.84C63.3467 29.16 63.9133 29.5733 64.3 30.08C64.7 30.5867 64.9 31.22 64.9 31.98C64.9 32.8067 64.6667 33.54 64.2 34.18C63.7467 34.8067 63.1 35.3 62.26 35.66C61.4333 36.0067 60.48 36.18 59.4 36.18ZM74.7939 33.32C75.0206 33.32 75.2006 33.4067 75.3339 33.58C75.4806 33.7533 75.5539 33.9867 75.5539 34.28C75.5539 34.6933 75.3072 35.04 74.8139 35.32C74.3606 35.5733 73.8472 35.78 73.2739 35.94C72.7006 36.0867 72.1539 36.16 71.6339 36.16C70.0606 36.16 68.8139 35.7067 67.8939 34.8C66.9739 33.8933 66.5139 32.6533 66.5139 31.08C66.5139 30.08 66.7139 29.1933 67.1139 28.42C67.5139 27.6467 68.0739 27.0467 68.7939 26.62C69.5272 26.1933 70.3539 25.98 71.2739 25.98C72.1539 25.98 72.9206 26.1733 73.5739 26.56C74.2272 26.9467 74.7339 27.4933 75.0939 28.2C75.4539 28.9067 75.6339 29.74 75.6339 30.7C75.6339 31.2733 75.3806 31.56 74.8739 31.56H68.9739C69.0539 32.48 69.3139 33.16 69.7539 33.6C70.1939 34.0267 70.8339 34.24 71.6739 34.24C72.1006 34.24 72.4739 34.1867 72.7939 34.08C73.1272 33.9733 73.5006 33.8267 73.9139 33.64C74.3139 33.4267 74.6072 33.32 74.7939 33.32ZM71.3339 27.74C70.6539 27.74 70.1072 27.9533 69.6939 28.38C69.2939 28.8067 69.0539 29.42 68.9739 30.22H73.4939C73.4672 29.4067 73.2672 28.7933 72.8939 28.38C72.5206 27.9533 72.0006 27.74 71.3339 27.74ZM85.4189 33.32C85.6456 33.32 85.8256 33.4067 85.9589 33.58C86.1056 33.7533 86.1789 33.9867 86.1789 34.28C86.1789 34.6933 85.9322 35.04 85.4389 35.32C84.9856 35.5733 84.4722 35.78 83.8989 35.94C83.3256 36.0867 82.7789 36.16 82.2589 36.16C80.6856 36.16 79.4389 35.7067 78.5189 34.8C77.5989 33.8933 77.1389 32.6533 77.1389 31.08C77.1389 30.08 77.3389 29.1933 77.7389 28.42C78.1389 27.6467 78.6989 27.0467 79.4189 26.62C80.1522 26.1933 80.9789 25.98 81.8989 25.98C82.7789 25.98 83.5456 26.1733 84.1989 26.56C84.8522 26.9467 85.3589 27.4933 85.7189 28.2C86.0789 28.9067 86.2589 29.74 86.2589 30.7C86.2589 31.2733 86.0056 31.56 85.4989 31.56H79.5989C79.6789 32.48 79.9389 33.16 80.3789 33.6C80.8189 34.0267 81.4589 34.24 82.2989 34.24C82.7256 34.24 83.0989 34.1867 83.4189 34.08C83.7522 33.9733 84.1256 33.8267 84.5389 33.64C84.9389 33.4267 85.2322 33.32 85.4189 33.32ZM81.9589 27.74C81.2789 27.74 80.7322 27.9533 80.3189 28.38C79.9189 28.8067 79.6789 29.42 79.5989 30.22H84.1189C84.0922 29.4067 83.8922 28.7933 83.5189 28.38C83.1456 27.9533 82.6256 27.74 81.9589 27.74ZM97.9736 25.98C99.3336 25.98 100.34 26.32 100.994 27C101.66 27.6667 101.994 28.6867 101.994 30.06V34.94C101.994 35.3 101.887 35.5867 101.674 35.8C101.46 36 101.167 36.1 100.794 36.1C100.447 36.1 100.16 35.9933 99.9336 35.78C99.7203 35.5667 99.6136 35.2867 99.6136 34.94V34.5C99.3869 35.02 99.0269 35.4267 98.5336 35.72C98.0536 36.0133 97.4936 36.16 96.8536 36.16C96.2003 36.16 95.6069 36.0267 95.0736 35.76C94.5403 35.4933 94.1203 35.1267 93.8136 34.66C93.5069 34.1933 93.3536 33.6733 93.3536 33.1C93.3536 32.38 93.5336 31.8133 93.8936 31.4C94.2669 30.9867 94.8669 30.6867 95.6936 30.5C96.5203 30.3133 97.6603 30.22 99.1136 30.22H99.6136V29.76C99.6136 29.1067 99.4736 28.6333 99.1936 28.34C98.9136 28.0333 98.4603 27.88 97.8336 27.88C97.4469 27.88 97.0536 27.94 96.6536 28.06C96.2536 28.1667 95.7803 28.3267 95.2336 28.54C94.8869 28.7133 94.6336 28.8 94.4736 28.8C94.2336 28.8 94.0336 28.7133 93.8736 28.54C93.7269 28.3667 93.6536 28.14 93.6536 27.86C93.6536 27.6333 93.7069 27.44 93.8136 27.28C93.9336 27.1067 94.1269 26.9467 94.3936 26.8C94.8603 26.5467 95.4136 26.3467 96.0536 26.2C96.7069 26.0533 97.3469 25.98 97.9736 25.98ZM97.3536 34.36C98.0203 34.36 98.5603 34.14 98.9736 33.7C99.4003 33.2467 99.6136 32.6667 99.6136 31.96V31.54H99.2536C98.3603 31.54 97.6669 31.58 97.1736 31.66C96.6803 31.74 96.3269 31.88 96.1136 32.08C95.9003 32.28 95.7936 32.5533 95.7936 32.9C95.7936 33.3267 95.9403 33.68 96.2336 33.96C96.5403 34.2267 96.9136 34.36 97.3536 34.36ZM112.694 21.8C113.068 21.8 113.374 21.9067 113.614 22.12C113.854 22.3333 113.974 22.6133 113.974 22.96V34.92C113.974 35.28 113.861 35.5667 113.634 35.78C113.408 35.9933 113.108 36.1 112.734 36.1C112.361 36.1 112.061 35.9933 111.834 35.78C111.608 35.5667 111.494 35.28 111.494 34.92V34.42C111.201 34.9667 110.774 35.3933 110.214 35.7C109.668 36.0067 109.041 36.16 108.334 36.16C107.494 36.16 106.741 35.9467 106.074 35.52C105.421 35.0933 104.908 34.4933 104.534 33.72C104.174 32.9333 103.994 32.0333 103.994 31.02C103.994 30.0067 104.174 29.12 104.534 28.36C104.908 27.6 105.421 27.0133 106.074 26.6C106.728 26.1867 107.481 25.98 108.334 25.98C109.041 25.98 109.668 26.1267 110.214 26.42C110.761 26.7133 111.181 27.1267 111.474 27.66V22.92C111.474 22.5867 111.581 22.32 111.794 22.12C112.021 21.9067 112.321 21.8 112.694 21.8ZM108.994 34.22C109.794 34.22 110.408 33.9467 110.834 33.4C111.274 32.8533 111.494 32.0733 111.494 31.06C111.494 30.0467 111.274 29.2733 110.834 28.74C110.408 28.1933 109.801 27.92 109.014 27.92C108.214 27.92 107.594 28.1867 107.154 28.72C106.714 29.2533 106.494 30.02 106.494 31.02C106.494 32.0333 106.714 32.82 107.154 33.38C107.594 33.94 108.208 34.22 108.994 34.22ZM124.706 21.8C125.079 21.8 125.386 21.9067 125.626 22.12C125.866 22.3333 125.986 22.6133 125.986 22.96V34.92C125.986 35.28 125.873 35.5667 125.646 35.78C125.419 35.9933 125.119 36.1 124.746 36.1C124.373 36.1 124.073 35.9933 123.846 35.78C123.619 35.5667 123.506 35.28 123.506 34.92V34.42C123.213 34.9667 122.786 35.3933 122.226 35.7C121.679 36.0067 121.053 36.16 120.346 36.16C119.506 36.16 118.753 35.9467 118.086 35.52C117.433 35.0933 116.919 34.4933 116.546 33.72C116.186 32.9333 116.006 32.0333 116.006 31.02C116.006 30.0067 116.186 29.12 116.546 28.36C116.919 27.6 117.433 27.0133 118.086 26.6C118.739 26.1867 119.493 25.98 120.346 25.98C121.053 25.98 121.679 26.1267 122.226 26.42C122.773 26.7133 123.193 27.1267 123.486 27.66V22.92C123.486 22.5867 123.593 22.32 123.806 22.12C124.033 21.9067 124.333 21.8 124.706 21.8ZM121.006 34.22C121.806 34.22 122.419 33.9467 122.846 33.4C123.286 32.8533 123.506 32.0733 123.506 31.06C123.506 30.0467 123.286 29.2733 122.846 28.74C122.419 28.1933 121.813 27.92 121.026 27.92C120.226 27.92 119.606 28.1867 119.166 28.72C118.726 29.2533 118.506 30.02 118.506 31.02C118.506 32.0333 118.726 32.82 119.166 33.38C119.606 33.94 120.219 34.22 121.006 34.22ZM129.798 36.12C129.438 36.12 129.138 36.02 128.898 35.82C128.671 35.6067 128.558 35.3067 128.558 34.92V27.2C128.558 26.8133 128.671 26.52 128.898 26.32C129.138 26.12 129.438 26.02 129.798 26.02C130.158 26.02 130.458 26.12 130.698 26.32C130.938 26.52 131.058 26.8133 131.058 27.2V34.92C131.058 35.3067 130.938 35.6067 130.698 35.82C130.458 36.02 130.158 36.12 129.798 36.12ZM129.798 24.24C129.344 24.24 128.984 24.12 128.718 23.88C128.451 23.6267 128.318 23.3 128.318 22.9C128.318 22.5 128.451 22.18 128.718 21.94C128.984 21.7 129.344 21.58 129.798 21.58C130.238 21.58 130.591 21.7 130.858 21.94C131.138 22.18 131.278 22.5 131.278 22.9C131.278 23.3 131.144 23.6267 130.878 23.88C130.611 24.12 130.251 24.24 129.798 24.24ZM139.146 34.26C139.812 34.3 140.146 34.6 140.146 35.16C140.146 35.48 140.012 35.7267 139.746 35.9C139.492 36.06 139.126 36.1267 138.646 36.1L138.106 36.06C135.866 35.9 134.746 34.7 134.746 32.46V28.1H133.746C133.386 28.1 133.106 28.02 132.906 27.86C132.719 27.7 132.626 27.4667 132.626 27.16C132.626 26.8533 132.719 26.62 132.906 26.46C133.106 26.3 133.386 26.22 133.746 26.22H134.746V24.38C134.746 24.02 134.859 23.7333 135.086 23.52C135.312 23.3067 135.619 23.2 136.006 23.2C136.379 23.2 136.679 23.3067 136.906 23.52C137.132 23.7333 137.246 24.02 137.246 24.38V26.22H138.946C139.306 26.22 139.579 26.3 139.766 26.46C139.966 26.62 140.066 26.8533 140.066 27.16C140.066 27.4667 139.966 27.7 139.766 27.86C139.579 28.02 139.306 28.1 138.946 28.1H137.246V32.64C137.246 33.6267 137.699 34.1533 138.606 34.22L139.146 34.26ZM142.688 36.12C142.328 36.12 142.028 36.02 141.788 35.82C141.562 35.6067 141.448 35.3067 141.448 34.92V27.2C141.448 26.8133 141.562 26.52 141.788 26.32C142.028 26.12 142.328 26.02 142.688 26.02C143.048 26.02 143.348 26.12 143.588 26.32C143.828 26.52 143.948 26.8133 143.948 27.2V34.92C143.948 35.3067 143.828 35.6067 143.588 35.82C143.348 36.02 143.048 36.12 142.688 36.12ZM142.688 24.24C142.235 24.24 141.875 24.12 141.608 23.88C141.342 23.6267 141.208 23.3 141.208 22.9C141.208 22.5 141.342 22.18 141.608 21.94C141.875 21.7 142.235 21.58 142.688 21.58C143.128 21.58 143.482 21.7 143.748 21.94C144.028 22.18 144.168 22.5 144.168 22.9C144.168 23.3 144.035 23.6267 143.768 23.88C143.502 24.12 143.142 24.24 142.688 24.24ZM150.987 36.16C149.987 36.16 149.107 35.9533 148.347 35.54C147.6 35.1267 147.02 34.5333 146.607 33.76C146.193 32.9867 145.987 32.0867 145.987 31.06C145.987 30.0333 146.193 29.14 146.607 28.38C147.02 27.6067 147.6 27.0133 148.347 26.6C149.107 26.1867 149.987 25.98 150.987 25.98C151.987 25.98 152.86 26.1867 153.607 26.6C154.367 27.0133 154.947 27.6067 155.347 28.38C155.76 29.14 155.967 30.0333 155.967 31.06C155.967 32.0867 155.76 32.9867 155.347 33.76C154.947 34.5333 154.367 35.1267 153.607 35.54C152.86 35.9533 151.987 36.16 150.987 36.16ZM150.967 34.22C151.78 34.22 152.4 33.9533 152.827 33.42C153.253 32.8867 153.467 32.1 153.467 31.06C153.467 30.0333 153.253 29.2533 152.827 28.72C152.4 28.1733 151.787 27.9 150.987 27.9C150.187 27.9 149.567 28.1733 149.127 28.72C148.7 29.2533 148.487 30.0333 148.487 31.06C148.487 32.1 148.7 32.8867 149.127 33.42C149.553 33.9533 150.167 34.22 150.967 34.22ZM163.71 25.98C164.884 25.98 165.757 26.3133 166.33 26.98C166.904 27.6467 167.19 28.6533 167.19 30V34.92C167.19 35.2933 167.077 35.5867 166.85 35.8C166.637 36.0133 166.337 36.12 165.95 36.12C165.564 36.12 165.257 36.0133 165.03 35.8C164.804 35.5867 164.69 35.2933 164.69 34.92V30.14C164.69 29.38 164.544 28.8267 164.25 28.48C163.97 28.1333 163.524 27.96 162.91 27.96C162.19 27.96 161.61 28.1867 161.17 28.64C160.744 29.0933 160.53 29.7 160.53 30.46V34.92C160.53 35.2933 160.417 35.5867 160.19 35.8C159.964 36.0133 159.657 36.12 159.27 36.12C158.884 36.12 158.577 36.0133 158.35 35.8C158.137 35.5867 158.03 35.2933 158.03 34.92V27.18C158.03 26.8333 158.144 26.5533 158.37 26.34C158.597 26.1267 158.904 26.02 159.29 26.02C159.637 26.02 159.917 26.1267 160.13 26.34C160.357 26.54 160.47 26.8067 160.47 27.14V27.68C160.804 27.1333 161.25 26.7133 161.81 26.42C162.37 26.1267 163.004 25.98 163.71 25.98ZM173.97 25.98C175.33 25.98 176.336 26.32 176.99 27C177.656 27.6667 177.99 28.6867 177.99 30.06V34.94C177.99 35.3 177.883 35.5867 177.67 35.8C177.456 36 177.163 36.1 176.79 36.1C176.443 36.1 176.156 35.9933 175.93 35.78C175.716 35.5667 175.61 35.2867 175.61 34.94V34.5C175.383 35.02 175.023 35.4267 174.53 35.72C174.05 36.0133 173.49 36.16 172.85 36.16C172.196 36.16 171.603 36.0267 171.07 35.76C170.536 35.4933 170.116 35.1267 169.81 34.66C169.503 34.1933 169.35 33.6733 169.35 33.1C169.35 32.38 169.53 31.8133 169.89 31.4C170.263 30.9867 170.863 30.6867 171.69 30.5C172.516 30.3133 173.656 30.22 175.11 30.22H175.61V29.76C175.61 29.1067 175.47 28.6333 175.19 28.34C174.91 28.0333 174.456 27.88 173.83 27.88C173.443 27.88 173.05 27.94 172.65 28.06C172.25 28.1667 171.776 28.3267 171.23 28.54C170.883 28.7133 170.63 28.8 170.47 28.8C170.23 28.8 170.03 28.7133 169.87 28.54C169.723 28.3667 169.65 28.14 169.65 27.86C169.65 27.6333 169.703 27.44 169.81 27.28C169.93 27.1067 170.123 26.9467 170.39 26.8C170.856 26.5467 171.41 26.3467 172.05 26.2C172.703 26.0533 173.343 25.98 173.97 25.98ZM173.35 34.36C174.016 34.36 174.556 34.14 174.97 33.7C175.396 33.2467 175.61 32.6667 175.61 31.96V31.54H175.25C174.356 31.54 173.663 31.58 173.17 31.66C172.676 31.74 172.323 31.88 172.11 32.08C171.896 32.28 171.79 32.5533 171.79 32.9C171.79 33.3267 171.936 33.68 172.23 33.96C172.536 34.2267 172.91 34.36 173.35 34.36ZM181.77 36.12C181.41 36.12 181.11 36.02 180.87 35.82C180.644 35.6067 180.53 35.3067 180.53 34.92V22.98C180.53 22.5933 180.644 22.3 180.87 22.1C181.11 21.9 181.41 21.8 181.77 21.8C182.13 21.8 182.43 21.9 182.67 22.1C182.91 22.3 183.03 22.5933 183.03 22.98V34.92C183.03 35.3067 182.91 35.6067 182.67 35.82C182.43 36.02 182.13 36.12 181.77 36.12ZM204.258 26.76C204.352 26.52 204.485 26.34 204.658 26.22C204.845 26.1 205.045 26.04 205.258 26.04C205.565 26.04 205.838 26.1467 206.078 26.36C206.332 26.56 206.458 26.8133 206.458 27.12C206.458 27.2933 206.425 27.4467 206.358 27.58L203.058 35.32C202.952 35.5733 202.785 35.7667 202.558 35.9C202.345 36.0333 202.105 36.1 201.838 36.1C201.585 36.1 201.345 36.0333 201.118 35.9C200.905 35.7667 200.745 35.5733 200.638 35.32L198.258 29.6L195.958 35.32C195.852 35.5733 195.685 35.7667 195.458 35.9C195.245 36.0333 195.005 36.1 194.738 36.1C194.485 36.1 194.245 36.0333 194.018 35.9C193.792 35.7667 193.625 35.5733 193.518 35.32L190.238 27.58C190.172 27.4067 190.138 27.26 190.138 27.14C190.138 26.8333 190.272 26.5733 190.538 26.36C190.805 26.1333 191.098 26.02 191.418 26.02C191.645 26.02 191.852 26.08 192.038 26.2C192.225 26.32 192.365 26.5 192.458 26.74L194.818 32.84L197.238 26.8C197.345 26.5467 197.498 26.36 197.698 26.24C197.898 26.1067 198.118 26.04 198.358 26.04C198.598 26.04 198.818 26.1067 199.018 26.24C199.218 26.36 199.372 26.5467 199.478 26.8L201.918 32.86L204.258 26.76ZM212.471 36.16C211.471 36.16 210.591 35.9533 209.831 35.54C209.084 35.1267 208.504 34.5333 208.091 33.76C207.678 32.9867 207.471 32.0867 207.471 31.06C207.471 30.0333 207.678 29.14 208.091 28.38C208.504 27.6067 209.084 27.0133 209.831 26.6C210.591 26.1867 211.471 25.98 212.471 25.98C213.471 25.98 214.344 26.1867 215.091 26.6C215.851 27.0133 216.431 27.6067 216.831 28.38C217.244 29.14 217.451 30.0333 217.451 31.06C217.451 32.0867 217.244 32.9867 216.831 33.76C216.431 34.5333 215.851 35.1267 215.091 35.54C214.344 35.9533 213.471 36.16 212.471 36.16ZM212.451 34.22C213.264 34.22 213.884 33.9533 214.311 33.42C214.738 32.8867 214.951 32.1 214.951 31.06C214.951 30.0333 214.738 29.2533 214.311 28.72C213.884 28.1733 213.271 27.9 212.471 27.9C211.671 27.9 211.051 28.1733 210.611 28.72C210.184 29.2533 209.971 30.0333 209.971 31.06C209.971 32.1 210.184 32.8867 210.611 33.42C211.038 33.9533 211.651 34.22 212.451 34.22ZM224.975 26.02C225.322 25.9933 225.595 26.0667 225.795 26.24C225.995 26.4133 226.095 26.6733 226.095 27.02C226.095 27.38 226.008 27.6467 225.835 27.82C225.662 27.9933 225.348 28.1067 224.895 28.16L224.295 28.22C223.508 28.3 222.928 28.5667 222.555 29.02C222.195 29.4733 222.015 30.04 222.015 30.72V34.92C222.015 35.3067 221.895 35.6067 221.655 35.82C221.415 36.02 221.115 36.12 220.755 36.12C220.395 36.12 220.095 36.02 219.855 35.82C219.628 35.6067 219.515 35.3067 219.515 34.92V27.18C219.515 26.8067 219.628 26.52 219.855 26.32C220.095 26.12 220.388 26.02 220.735 26.02C221.082 26.02 221.362 26.12 221.575 26.32C221.788 26.5067 221.895 26.78 221.895 27.14V27.94C222.148 27.3533 222.522 26.9 223.015 26.58C223.522 26.26 224.082 26.08 224.695 26.04L224.975 26.02ZM235.871 34.06C236.138 34.3133 236.271 34.6 236.271 34.92C236.271 35.2267 236.158 35.5 235.931 35.74C235.718 35.98 235.464 36.1 235.171 36.1C234.878 36.1 234.604 35.98 234.351 35.74L229.671 31.5V34.92C229.671 35.3067 229.551 35.6 229.311 35.8C229.071 36 228.771 36.1 228.411 36.1C228.051 36.1 227.751 36 227.511 35.8C227.284 35.6 227.171 35.3067 227.171 34.92V22.98C227.171 22.5933 227.284 22.3 227.511 22.1C227.751 21.9 228.051 21.8 228.411 21.8C228.771 21.8 229.071 21.9 229.311 22.1C229.551 22.3 229.671 22.5933 229.671 22.98V30.5L233.951 26.4C234.191 26.16 234.464 26.04 234.771 26.04C235.078 26.04 235.344 26.1533 235.571 26.38C235.798 26.6067 235.911 26.8733 235.911 27.18C235.911 27.4867 235.784 27.7667 235.531 28.02L232.391 30.94L235.871 34.06ZM241.297 36.16C239.844 36.16 238.67 35.8733 237.777 35.3C237.35 35.0467 237.137 34.6867 237.137 34.22C237.137 33.9533 237.21 33.74 237.357 33.58C237.504 33.4067 237.684 33.32 237.897 33.32C238.124 33.32 238.437 33.4267 238.837 33.64C239.264 33.84 239.65 33.9933 239.997 34.1C240.357 34.2067 240.81 34.26 241.357 34.26C241.917 34.26 242.35 34.1667 242.657 33.98C242.977 33.7933 243.137 33.5333 243.137 33.2C243.137 32.9733 243.07 32.7933 242.937 32.66C242.817 32.5267 242.59 32.4067 242.257 32.3C241.937 32.18 241.444 32.0467 240.777 31.9C239.59 31.66 238.737 31.32 238.217 30.88C237.71 30.44 237.457 29.8333 237.457 29.06C237.457 28.4733 237.63 27.9467 237.977 27.48C238.324 27 238.797 26.6333 239.397 26.38C240.01 26.1133 240.704 25.98 241.477 25.98C242.037 25.98 242.577 26.0533 243.097 26.2C243.617 26.3333 244.084 26.5333 244.497 26.8C244.924 27.0667 245.137 27.42 245.137 27.86C245.137 28.1267 245.064 28.3533 244.917 28.54C244.77 28.7133 244.59 28.8 244.377 28.8C244.23 28.8 244.084 28.7733 243.937 28.72C243.804 28.6533 243.63 28.56 243.417 28.44C243.03 28.24 242.697 28.0933 242.417 28C242.137 27.8933 241.79 27.84 241.377 27.84C240.884 27.84 240.49 27.94 240.197 28.14C239.917 28.34 239.777 28.6133 239.777 28.96C239.777 29.2933 239.924 29.5467 240.217 29.72C240.51 29.8933 241.077 30.0667 241.917 30.24C242.81 30.4267 243.51 30.64 244.017 30.88C244.524 31.12 244.884 31.42 245.097 31.78C245.324 32.14 245.437 32.6 245.437 33.16C245.437 34.0667 245.057 34.7933 244.297 35.34C243.55 35.8867 242.55 36.16 241.297 36.16Z" fill="#D5E8FE"/>
<path d="M258.25 30.7134H273.075L268.537 36.0072C268.432 36.13 268.353 36.2717 268.305 36.4242C268.256 36.5766 268.239 36.7369 268.254 36.8959C268.284 37.217 268.445 37.5131 268.7 37.7192C268.955 37.9253 269.284 38.0245 269.615 37.9949C269.945 37.9653 270.25 37.8093 270.463 37.5614L276.713 30.2763C276.755 30.2184 276.792 30.1575 276.825 30.0942C276.825 30.0335 276.888 29.9971 276.913 29.9363C276.969 29.7971 276.999 29.6489 277 29.4992C276.999 29.3495 276.969 29.2014 276.913 29.0621C276.913 29.0014 276.85 28.965 276.825 28.9043C276.792 28.841 276.755 28.7801 276.713 28.7222L270.463 21.4371C270.345 21.3 270.198 21.1898 270.031 21.1143C269.865 21.0387 269.684 20.9997 269.5 21C269.208 20.9994 268.925 21.0983 268.7 21.2793C268.573 21.3812 268.469 21.5064 268.392 21.6476C268.315 21.7889 268.268 21.9435 268.253 22.1025C268.238 22.2615 268.255 22.4219 268.304 22.5744C268.353 22.7269 268.432 22.8686 268.537 22.9913L273.075 28.2851H258.25C257.918 28.2851 257.601 28.413 257.366 28.6407C257.132 28.8684 257 29.1772 257 29.4992C257 29.8213 257.132 30.1301 257.366 30.3578C257.601 30.5855 257.918 30.7134 258.25 30.7134Z" fill="#D5E8FE"/>
</g>
<defs>
<filter id="filter0_d" x="0" y="0" width="330" height="78" filterUnits="userSpaceOnUse" color-interpolation-filters="sRGB">
<feFlood flood-opacity="0" result="BackgroundImageFix"/>
<feColorMatrix in="SourceAlpha" type="matrix" values="0 0 0 0 0 0 0 0 0 0 0 0 0 0 0 0 0 0 127 0" result="hardAlpha"/>
<feOffset dy="4"/>
<feGaussianBlur stdDeviation="2"/>
<feComposite in2="hardAlpha" operator="out"/>
<feColorMatrix type="matrix" values="0 0 0 0 0 0 0 0 0 0 0 0 0 0 0 0 0 0 0.25 0"/>
<feBlend mode="normal" in2="BackgroundImageFix" result="effect1_dropShadow"/>
<feBlend mode="normal" in="SourceGraphic" in2="effect1_dropShadow" result="shape"/>
</filter>
</defs>
</svg>
