<svg width="30" height="15" viewBox="0 0 30 15" fill="none" xmlns="http://www.w3.org/2000/svg">
<path d="M14.9765 14.9949C14.4767 14.9959 13.9923 14.8216 13.6074 14.5023L0.77276 3.79358C0.335917 3.43004 0.0612027 2.90764 0.00905166 2.34131C-0.0430993 1.77497 0.131585 1.21109 0.494675 0.773711C0.857765 0.33633 1.37952 0.0612781 1.94516 0.00906286C2.51079 -0.0431524 3.07398 0.131746 3.51082 0.495284L14.9765 10.0903L26.4421 0.837965C26.6609 0.660059 26.9127 0.527202 27.1829 0.447033C27.4532 0.366863 27.7366 0.340961 28.0169 0.370816C28.2972 0.40067 28.5688 0.485691 28.8162 0.620993C29.0635 0.756296 29.2817 0.939212 29.4583 1.15923C29.6542 1.37944 29.8025 1.6378 29.8941 1.9181C29.9856 2.19839 30.0183 2.4946 29.9902 2.78815C29.9621 3.08171 29.8738 3.36629 29.7307 3.62406C29.5876 3.88184 29.3929 4.10725 29.1588 4.28618L16.3241 14.6308C15.9282 14.8997 15.4537 15.0279 14.9765 14.9949V14.9949Z" fill="#E7899D"/>
</svg>
