<svg width="68" height="68" viewBox="0 0 68 68" fill="none" xmlns="http://www.w3.org/2000/svg">
<g filter="url(#filter0_d)">
<rect x="4" y="4" width="60" height="60" rx="15" fill="#F8EEBB"/>
<path d="M18 27C18 24.2386 20.2386 22 23 22H39.7605C42.5219 22 44.7605 24.2386 44.7605 27V35.7323C44.7605 38.4937 42.5219 40.7323 39.7605 40.7323H23C20.2386 40.7323 18 38.4938 18 35.7323V27Z" fill="#F5F2E3" stroke="#998259" stroke-width="4"/>
<path d="M43.69 23.0704L33.1629 32.9256C32.0093 34.0055 30.2159 34.0055 29.0623 32.9256L18.5352 23.0704" stroke="#998259" stroke-width="4"/>
<path d="M35.757 39.4409L43.7748 31.423C45.7275 29.4704 48.8933 29.4704 50.8459 31.423L51.9536 32.5307C53.9062 34.4833 53.9062 37.6491 51.9536 39.6017L43.9357 47.6196L35.757 39.4409Z" fill="#4E3C30"/>
<path d="M35.7464 39.4456L43.9518 47.626L38.3576 49.8543C32.9556 51.3486 32.0519 50.4716 33.7833 45.2878L35.7464 39.4456Z" fill="#FFCB49"/>
<path d="M33.8247 45.1686L38.4801 49.8161C32.9029 51.4162 31.9828 50.5239 33.8247 45.1686Z" fill="#493D2D"/>
</g>
<defs>
<filter id="filter0_d" x="0" y="0" width="68" height="68" filterUnits="userSpaceOnUse" color-interpolation-filters="sRGB">
<feFlood flood-opacity="0" result="BackgroundImageFix"/>
<feColorMatrix in="SourceAlpha" type="matrix" values="0 0 0 0 0 0 0 0 0 0 0 0 0 0 0 0 0 0 127 0" result="hardAlpha"/>
<feOffset/>
<feGaussianBlur stdDeviation="2"/>
<feComposite in2="hardAlpha" operator="out"/>
<feColorMatrix type="matrix" values="0 0 0 0 0 0 0 0 0 0 0 0 0 0 0 0 0 0 0.25 0"/>
<feBlend mode="normal" in2="BackgroundImageFix" result="effect1_dropShadow"/>
<feBlend mode="normal" in="SourceGraphic" in2="effect1_dropShadow" result="shape"/>
</filter>
</defs>
</svg>
