<svg width="78" height="78" viewBox="0 0 78 78" fill="none" xmlns="http://www.w3.org/2000/svg">
<g filter="url(#filter0_d)">
<rect x="4" y="4" width="70" height="70" rx="16" fill="#A99E65"/>
</g>
<rect x="9" y="9" width="60" height="60" rx="15" fill="#F8EEBB"/>
<path d="M23 32C23 29.2386 25.2386 27 28 27H44.7605C47.5219 27 49.7605 29.2386 49.7605 32V40.7323C49.7605 43.4937 47.5219 45.7323 44.7605 45.7323H28C25.2386 45.7323 23 43.4938 23 40.7323V32Z" fill="#F5F2E3" stroke="#998259" stroke-width="4"/>
<path d="M48.69 28.0703L38.1628 37.9255C37.0093 39.0054 35.2158 39.0054 34.0623 37.9255L23.5352 28.0703" stroke="#998259" stroke-width="4"/>
<path d="M40.757 44.4412L48.7749 36.4233C50.7275 34.4707 53.8934 34.4707 55.846 36.4233L56.9536 37.531C58.9063 39.4836 58.9063 42.6495 56.9536 44.6021L48.9358 52.6199L40.757 44.4412Z" fill="#4E3C30"/>
<path d="M40.7464 44.4459L48.9518 52.6262L43.3576 54.8545C37.9556 56.3488 37.0519 55.4719 38.7833 50.2881L40.7464 44.4459Z" fill="#FFCB49"/>
<path d="M38.8248 50.1688L43.4802 54.8163C37.903 56.4163 36.9829 55.5241 38.8248 50.1688Z" fill="#493D2D"/>
<defs>
<filter id="filter0_d" x="0" y="0" width="78" height="78" filterUnits="userSpaceOnUse" color-interpolation-filters="sRGB">
<feFlood flood-opacity="0" result="BackgroundImageFix"/>
<feColorMatrix in="SourceAlpha" type="matrix" values="0 0 0 0 0 0 0 0 0 0 0 0 0 0 0 0 0 0 127 0" result="hardAlpha"/>
<feOffset/>
<feGaussianBlur stdDeviation="2"/>
<feComposite in2="hardAlpha" operator="out"/>
<feColorMatrix type="matrix" values="0 0 0 0 0 0 0 0 0 0 0 0 0 0 0 0 0 0 0.25 0"/>
<feBlend mode="normal" in2="BackgroundImageFix" result="effect1_dropShadow"/>
<feBlend mode="normal" in="SourceGraphic" in2="effect1_dropShadow" result="shape"/>
</filter>
</defs>
</svg>
