<svg width="68" height="68" viewBox="0 0 68 68" fill="none" xmlns="http://www.w3.org/2000/svg">
<g filter="url(#filter0_d)">
<rect x="4" width="60" height="60" rx="15" fill="#8ECFC9"/>
<path d="M33.9765 22.0051C33.4767 22.0041 32.9923 22.1784 32.6074 22.4977L19.7728 33.2064C19.3359 33.57 19.0612 34.0924 19.0091 34.6587C18.9569 35.225 19.1316 35.7889 19.4947 36.2263C19.8578 36.6637 20.3795 36.9387 20.9452 36.9909C21.5108 37.0432 22.074 36.8683 22.5108 36.5047L33.9765 26.9097L45.4421 36.162C45.6609 36.3399 45.9127 36.4728 46.1829 36.553C46.4532 36.6331 46.7366 36.659 47.0169 36.6292C47.2972 36.5993 47.5688 36.5143 47.8162 36.379C48.0635 36.2437 48.2817 36.0608 48.4583 35.8408C48.6542 35.6206 48.8025 35.3622 48.8941 35.0819C48.9856 34.8016 49.0183 34.5054 48.9902 34.2118C48.9621 33.9183 48.8738 33.6337 48.7307 33.3759C48.5876 33.1182 48.3929 32.8927 48.1588 32.7138L35.3241 22.3692C34.9282 22.1003 34.4537 21.9721 33.9765 22.0051Z" fill="#F8F8F1"/>
</g>
<defs>
<filter id="filter0_d" x="0" y="0" width="68" height="68" filterUnits="userSpaceOnUse" color-interpolation-filters="sRGB">
<feFlood flood-opacity="0" result="BackgroundImageFix"/>
<feColorMatrix in="SourceAlpha" type="matrix" values="0 0 0 0 0 0 0 0 0 0 0 0 0 0 0 0 0 0 127 0" result="hardAlpha"/>
<feOffset dy="4"/>
<feGaussianBlur stdDeviation="2"/>
<feComposite in2="hardAlpha" operator="out"/>
<feColorMatrix type="matrix" values="0 0 0 0 0 0 0 0 0 0 0 0 0 0 0 0 0 0 0.25 0"/>
<feBlend mode="normal" in2="BackgroundImageFix" result="effect1_dropShadow"/>
<feBlend mode="normal" in="SourceGraphic" in2="effect1_dropShadow" result="shape"/>
</filter>
</defs>
</svg>
