<svg width="299" height="16" viewBox="0 0 299 16" fill="none" xmlns="http://www.w3.org/2000/svg"><path d="M2 13L1 4l10 4-9 5zM21 11.5L29 1l5 11-13-.5zM44.5 13L44 2l10 4.5-9.5 6.5zM72 2l5 13-13.5-2.5L72 2zM101 10l-12 4 2.5-12 9.5 8zM113 13l-2-9 8 3-6 6zM133 15l1.5-13 9.5 7-11 6zM155.5 14.5l4-12.5 9 10-13 2.5zM180.5 13.5L180 4l10 4-9.5 5.5zM200 11.5L208 1l5 11-13-.5zM223.5 13L223 2l10 5-9.5 6zM241.5 12.5L250 2l5 13-13.5-2.5zM268 14l3-12 9 7-12 5zM292 13l-2-9 8 3-6 6z" fill="#CAFFBF"/><path d="M2 13L1 4l10 4-9 5zM21 11.5L29 1l5 11-13-.5zM44.5 13L44 2l10 4.5-9.5 6.5zM72 2l5 13-13.5-2.5L72 2zM101 10l-12 4 2.5-12 9.5 8zM113 13l-2-9 8 3-6 6zM133 15l1.5-13 9.5 7-11 6zM155.5 14.5l4-12.5 9 10-13 2.5zM180.5 13.5L180 4l10 4-9.5 5.5zM200 11.5L208 1l5 11-13-.5zM223.5 13L223 2l10 5-9.5 6zM241.5 12.5L250 2l5 13-13.5-2.5zM268 14l3-12 9 7-12 5zM292 13l-2-9 8 3-6 6z" stroke="#CAFFBF"/></svg>