<svg width="78" height="78" viewBox="0 0 78 78" fill="none" xmlns="http://www.w3.org/2000/svg">
<g filter="url(#filter0_d)">
<rect x="4" y="4" width="70" height="70" rx="16" fill="#C7D1DF"/>
<rect x="9" y="9" width="60" height="60" rx="15" fill="#2966BC"/>
<path d="M30.41 29.28C30.4633 30.1067 30.21 30.8133 29.65 31.4C29.1167 31.96 28.4367 32.24 27.61 32.24C26.7833 32.24 26.0367 32.0133 25.37 31.56C24.73 31.1067 24.41 30.4133 24.41 29.48C24.41 28.6533 24.6633 27.9333 25.17 27.32C25.7033 26.68 26.3833 26.36 27.21 26.36C28.0367 26.36 28.77 26.6133 29.41 27.12C30.05 27.6267 30.3833 28.3467 30.41 29.28ZM32.93 50.96H23.77L23.65 47.36L26.41 47.24L26.53 37.96L23.09 37.8L23.05 34.04L30.61 33.84L30.65 47.08L32.93 47.16V50.96ZM53.9344 51.36L47.5744 51.32C47.6544 47.1333 47.6944 44.12 47.6944 42.28C47.6944 40.4133 47.6944 39.48 47.6944 39.48C47.6944 38.84 47.4677 38.3067 47.0144 37.88C46.561 37.4533 46.001 37.2 45.3344 37.12C44.6944 37.04 44.0277 37.16 43.3344 37.48C42.641 37.7733 42.081 38.32 41.6544 39.12L41.4544 50.92L34.9344 50.96V48.08L37.1744 48L37.2544 35L34.6144 35.12L34.5344 32.2L41.5744 32.08V34.76C42.1877 34.0667 42.9077 33.6 43.7344 33.36C44.5877 33.12 45.3477 32.9867 46.0144 32.96C47.001 32.9067 47.8677 33.0533 48.6144 33.4C49.361 33.7467 49.9877 34.2 50.4944 34.76C51.001 35.32 51.3877 35.9467 51.6544 36.64C51.921 37.3067 52.0544 37.9467 52.0544 38.56C52.0544 38.56 52.0544 39.3733 52.0544 41C52.0544 42.6 52.041 44.8133 52.0144 47.64L53.9344 47.52V51.36Z" fill="white"/>
</g>
<defs>
<filter id="filter0_d" x="0" y="0" width="78" height="78" filterUnits="userSpaceOnUse" color-interpolation-filters="sRGB">
<feFlood flood-opacity="0" result="BackgroundImageFix"/>
<feColorMatrix in="SourceAlpha" type="matrix" values="0 0 0 0 0 0 0 0 0 0 0 0 0 0 0 0 0 0 127 0" result="hardAlpha"/>
<feOffset/>
<feGaussianBlur stdDeviation="2"/>
<feComposite in2="hardAlpha" operator="out"/>
<feColorMatrix type="matrix" values="0 0 0 0 0 0 0 0 0 0 0 0 0 0 0 0 0 0 0.25 0"/>
<feBlend mode="normal" in2="BackgroundImageFix" result="effect1_dropShadow"/>
<feBlend mode="normal" in="SourceGraphic" in2="effect1_dropShadow" result="shape"/>
</filter>
</defs>
</svg>
