<svg width="68" height="68" viewBox="0 0 68 68" fill="none" xmlns="http://www.w3.org/2000/svg">
<g filter="url(#filter0_d)">
<rect x="4" y="4" width="60" height="60" rx="15" fill="#2966BC"/>
<path d="M25.41 24.28C25.4633 25.1067 25.21 25.8133 24.65 26.4C24.1167 26.96 23.4367 27.24 22.61 27.24C21.7833 27.24 21.0367 27.0133 20.37 26.56C19.73 26.1067 19.41 25.4133 19.41 24.48C19.41 23.6533 19.6633 22.9333 20.17 22.32C20.7033 21.68 21.3833 21.36 22.21 21.36C23.0367 21.36 23.77 21.6133 24.41 22.12C25.05 22.6267 25.3833 23.3467 25.41 24.28ZM27.93 45.96H18.77L18.65 42.36L21.41 42.24L21.53 32.96L18.09 32.8L18.05 29.04L25.61 28.84L25.65 42.08L27.93 42.16V45.96ZM48.9344 46.36L42.5744 46.32C42.6544 42.1333 42.6944 39.12 42.6944 37.28C42.6944 35.4133 42.6944 34.48 42.6944 34.48C42.6944 33.84 42.4677 33.3067 42.0144 32.88C41.561 32.4533 41.001 32.2 40.3344 32.12C39.6944 32.04 39.0277 32.16 38.3344 32.48C37.641 32.7733 37.081 33.32 36.6544 34.12L36.4544 45.92L29.9344 45.96V43.08L32.1744 43L32.2544 30L29.6144 30.12L29.5344 27.2L36.5744 27.08V29.76C37.1877 29.0667 37.9077 28.6 38.7344 28.36C39.5877 28.12 40.3477 27.9867 41.0144 27.96C42.001 27.9067 42.8677 28.0533 43.6144 28.4C44.361 28.7467 44.9877 29.2 45.4944 29.76C46.001 30.32 46.3877 30.9467 46.6544 31.64C46.921 32.3067 47.0544 32.9467 47.0544 33.56C47.0544 33.56 47.0544 34.3733 47.0544 36C47.0544 37.6 47.041 39.8133 47.0144 42.64L48.9344 42.52V46.36Z" fill="white"/>
</g>
<defs>
<filter id="filter0_d" x="0" y="0" width="68" height="68" filterUnits="userSpaceOnUse" color-interpolation-filters="sRGB">
<feFlood flood-opacity="0" result="BackgroundImageFix"/>
<feColorMatrix in="SourceAlpha" type="matrix" values="0 0 0 0 0 0 0 0 0 0 0 0 0 0 0 0 0 0 127 0" result="hardAlpha"/>
<feOffset/>
<feGaussianBlur stdDeviation="2"/>
<feComposite in2="hardAlpha" operator="out"/>
<feColorMatrix type="matrix" values="0 0 0 0 0 0 0 0 0 0 0 0 0 0 0 0 0 0 0.25 0"/>
<feBlend mode="normal" in2="BackgroundImageFix" result="effect1_dropShadow"/>
<feBlend mode="normal" in="SourceGraphic" in2="effect1_dropShadow" result="shape"/>
</filter>
</defs>
</svg>
