<svg width="357" height="78" viewBox="0 0 357 78" fill="none" xmlns="http://www.w3.org/2000/svg">
<g filter="url(#filter0_d_366:3573)">
<rect x="4" y="10" width="349" height="60" rx="23" fill="#405BA3"/>
<rect x="4" width="349" height="60" rx="23" fill="#597BD5"/>
<path d="M65.8 34.38C65.96 34.62 66.04 34.8533 66.04 35.08C66.04 35.3867 65.9133 35.64 65.66 35.84C65.42 36.04 65.1333 36.14 64.8 36.14C64.5867 36.14 64.38 36.0933 64.18 36C63.9933 35.8933 63.8333 35.74 63.7 35.54L61.04 31.5C60.7733 31.0733 60.4867 30.7733 60.18 30.6C59.8867 30.4267 59.5 30.34 59.02 30.34H57.06V34.82C57.06 35.22 56.9467 35.54 56.72 35.78C56.4933 36.0067 56.1867 36.12 55.8 36.12C55.4133 36.12 55.1 36.0067 54.86 35.78C54.6333 35.54 54.52 35.22 54.52 34.82V23.12C54.52 22.7333 54.6267 22.4333 54.84 22.22C55.0667 22.0067 55.3733 21.9 55.76 21.9H60.76C62.36 21.9 63.5733 22.26 64.4 22.98C65.24 23.6867 65.66 24.7133 65.66 26.06C65.66 27.1533 65.3467 28.0533 64.72 28.76C64.1067 29.4533 63.2333 29.9 62.1 30.1C62.4867 30.1933 62.8267 30.36 63.12 30.6C63.4133 30.84 63.7 31.1733 63.98 31.6L65.8 34.38ZM60.4 28.36C61.3733 28.36 62.0867 28.18 62.54 27.82C62.9933 27.4467 63.22 26.88 63.22 26.12C63.22 25.3467 62.9933 24.7867 62.54 24.44C62.0867 24.08 61.3733 23.9 60.4 23.9H57.04V28.36H60.4ZM75.9463 33.32C76.1729 33.32 76.3529 33.4067 76.4863 33.58C76.6329 33.7533 76.7063 33.9867 76.7063 34.28C76.7063 34.6933 76.4596 35.04 75.9663 35.32C75.5129 35.5733 74.9996 35.78 74.4263 35.94C73.8529 36.0867 73.3063 36.16 72.7862 36.16C71.2129 36.16 69.9663 35.7067 69.0463 34.8C68.1263 33.8933 67.6663 32.6533 67.6663 31.08C67.6663 30.08 67.8663 29.1933 68.2663 28.42C68.6663 27.6467 69.2263 27.0467 69.9463 26.62C70.6796 26.1933 71.5063 25.98 72.4263 25.98C73.3063 25.98 74.0729 26.1733 74.7263 26.56C75.3796 26.9467 75.8863 27.4933 76.2463 28.2C76.6063 28.9067 76.7863 29.74 76.7863 30.7C76.7863 31.2733 76.5329 31.56 76.0263 31.56H70.1263C70.2063 32.48 70.4663 33.16 70.9063 33.6C71.3463 34.0267 71.9863 34.24 72.8263 34.24C73.2529 34.24 73.6263 34.1867 73.9463 34.08C74.2796 33.9733 74.6529 33.8267 75.0663 33.64C75.4663 33.4267 75.7596 33.32 75.9463 33.32ZM72.4863 27.74C71.8063 27.74 71.2596 27.9533 70.8463 28.38C70.4463 28.8067 70.2063 29.42 70.1263 30.22H74.6463C74.6196 29.4067 74.4196 28.7933 74.0463 28.38C73.6729 27.9533 73.1529 27.74 72.4863 27.74ZM83.0713 25.98C84.4313 25.98 85.4379 26.32 86.0913 27C86.7579 27.6667 87.0913 28.6867 87.0913 30.06V34.94C87.0913 35.3 86.9846 35.5867 86.7713 35.8C86.5579 36 86.2646 36.1 85.8913 36.1C85.5446 36.1 85.2579 35.9933 85.0313 35.78C84.8179 35.5667 84.7113 35.2867 84.7113 34.94V34.5C84.4846 35.02 84.1246 35.4267 83.6313 35.72C83.1513 36.0133 82.5913 36.16 81.9513 36.16C81.2979 36.16 80.7046 36.0267 80.1712 35.76C79.6379 35.4933 79.2179 35.1267 78.9113 34.66C78.6046 34.1933 78.4513 33.6733 78.4513 33.1C78.4513 32.38 78.6313 31.8133 78.9913 31.4C79.3646 30.9867 79.9646 30.6867 80.7913 30.5C81.6179 30.3133 82.7579 30.22 84.2113 30.22H84.7113V29.76C84.7113 29.1067 84.5713 28.6333 84.2913 28.34C84.0113 28.0333 83.5579 27.88 82.9313 27.88C82.5446 27.88 82.1513 27.94 81.7513 28.06C81.3513 28.1667 80.8779 28.3267 80.3313 28.54C79.9846 28.7133 79.7313 28.8 79.5713 28.8C79.3313 28.8 79.1313 28.7133 78.9713 28.54C78.8246 28.3667 78.7513 28.14 78.7513 27.86C78.7513 27.6333 78.8046 27.44 78.9113 27.28C79.0313 27.1067 79.2246 26.9467 79.4913 26.8C79.9579 26.5467 80.5113 26.3467 81.1513 26.2C81.8046 26.0533 82.4446 25.98 83.0713 25.98ZM82.4513 34.36C83.1179 34.36 83.6579 34.14 84.0713 33.7C84.4979 33.2467 84.7113 32.6667 84.7113 31.96V31.54H84.3513C83.4579 31.54 82.7646 31.58 82.2713 31.66C81.7779 31.74 81.4246 31.88 81.2113 32.08C80.9979 32.28 80.8913 32.5533 80.8913 32.9C80.8913 33.3267 81.0379 33.68 81.3313 33.96C81.6379 34.2267 82.0113 34.36 82.4513 34.36ZM97.792 21.8C98.1654 21.8 98.472 21.9067 98.712 22.12C98.952 22.3333 99.072 22.6133 99.072 22.96V34.92C99.072 35.28 98.9587 35.5667 98.732 35.78C98.5054 35.9933 98.2054 36.1 97.832 36.1C97.4587 36.1 97.1587 35.9933 96.932 35.78C96.7054 35.5667 96.592 35.28 96.592 34.92V34.42C96.2987 34.9667 95.872 35.3933 95.312 35.7C94.7654 36.0067 94.1387 36.16 93.432 36.16C92.592 36.16 91.8387 35.9467 91.172 35.52C90.5187 35.0933 90.0054 34.4933 89.632 33.72C89.272 32.9333 89.092 32.0333 89.092 31.02C89.092 30.0067 89.272 29.12 89.632 28.36C90.0054 27.6 90.5187 27.0133 91.172 26.6C91.8254 26.1867 92.5787 25.98 93.432 25.98C94.1387 25.98 94.7654 26.1267 95.312 26.42C95.8587 26.7133 96.2787 27.1267 96.572 27.66V22.92C96.572 22.5867 96.6787 22.32 96.892 22.12C97.1187 21.9067 97.4187 21.8 97.792 21.8ZM94.092 34.22C94.892 34.22 95.5054 33.9467 95.932 33.4C96.372 32.8533 96.592 32.0733 96.592 31.06C96.592 30.0467 96.372 29.2733 95.932 28.74C95.5054 28.1933 94.8987 27.92 94.112 27.92C93.312 27.92 92.692 28.1867 92.252 28.72C91.812 29.2533 91.592 30.02 91.592 31.02C91.592 32.0333 91.812 32.82 92.252 33.38C92.692 33.94 93.3054 34.22 94.092 34.22ZM112.153 34.26C112.82 34.3 113.153 34.6 113.153 35.16C113.153 35.48 113.02 35.7267 112.753 35.9C112.5 36.06 112.133 36.1267 111.653 36.1L111.113 36.06C108.873 35.9 107.753 34.7 107.753 32.46V28.1H106.753C106.393 28.1 106.113 28.02 105.913 27.86C105.727 27.7 105.633 27.4667 105.633 27.16C105.633 26.8533 105.727 26.62 105.913 26.46C106.113 26.3 106.393 26.22 106.753 26.22H107.753V24.38C107.753 24.02 107.867 23.7333 108.093 23.52C108.32 23.3067 108.627 23.2 109.013 23.2C109.387 23.2 109.687 23.3067 109.913 23.52C110.14 23.7333 110.253 24.02 110.253 24.38V26.22H111.953C112.313 26.22 112.587 26.3 112.773 26.46C112.973 26.62 113.073 26.8533 113.073 27.16C113.073 27.4667 112.973 27.7 112.773 27.86C112.587 28.02 112.313 28.1 111.953 28.1H110.253V32.64C110.253 33.6267 110.707 34.1533 111.613 34.22L112.153 34.26ZM120.176 25.98C122.47 25.98 123.616 27.32 123.616 30V34.92C123.616 35.2933 123.503 35.5867 123.276 35.8C123.063 36.0133 122.763 36.12 122.376 36.12C121.99 36.12 121.683 36.0133 121.456 35.8C121.23 35.5867 121.116 35.2933 121.116 34.92V30C121.116 29.2933 120.97 28.78 120.676 28.46C120.396 28.1267 119.95 27.96 119.336 27.96C118.616 27.96 118.036 28.1867 117.596 28.64C117.17 29.0933 116.956 29.7 116.956 30.46V34.92C116.956 35.2933 116.843 35.5867 116.616 35.8C116.39 36.0133 116.083 36.12 115.696 36.12C115.31 36.12 115.003 36.0133 114.776 35.8C114.563 35.5867 114.456 35.2933 114.456 34.92V22.96C114.456 22.6133 114.57 22.3333 114.796 22.12C115.036 21.9067 115.343 21.8 115.716 21.8C116.09 21.8 116.39 21.9 116.616 22.1C116.843 22.3 116.956 22.5733 116.956 22.92V27.58C117.29 27.06 117.73 26.6667 118.276 26.4C118.836 26.12 119.47 25.98 120.176 25.98ZM133.895 33.32C134.122 33.32 134.302 33.4067 134.435 33.58C134.582 33.7533 134.655 33.9867 134.655 34.28C134.655 34.6933 134.409 35.04 133.915 35.32C133.462 35.5733 132.949 35.78 132.375 35.94C131.802 36.0867 131.255 36.16 130.735 36.16C129.162 36.16 127.915 35.7067 126.995 34.8C126.075 33.8933 125.615 32.6533 125.615 31.08C125.615 30.08 125.815 29.1933 126.215 28.42C126.615 27.6467 127.175 27.0467 127.895 26.62C128.629 26.1933 129.455 25.98 130.375 25.98C131.255 25.98 132.022 26.1733 132.675 26.56C133.329 26.9467 133.835 27.4933 134.195 28.2C134.555 28.9067 134.735 29.74 134.735 30.7C134.735 31.2733 134.482 31.56 133.975 31.56H128.075C128.155 32.48 128.415 33.16 128.855 33.6C129.295 34.0267 129.935 34.24 130.775 34.24C131.202 34.24 131.575 34.1867 131.895 34.08C132.229 33.9733 132.602 33.8267 133.015 33.64C133.415 33.4267 133.709 33.32 133.895 33.32ZM130.435 27.74C129.755 27.74 129.209 27.9533 128.795 28.38C128.395 28.8067 128.155 29.42 128.075 30.22H132.595C132.569 29.4067 132.369 28.7933 131.995 28.38C131.622 27.9533 131.102 27.74 130.435 27.74ZM147.15 23.76C146.537 23.8 146.09 23.9867 145.81 24.32C145.53 24.6533 145.39 25.1333 145.39 25.76V26.22H147.09C147.837 26.22 148.21 26.5333 148.21 27.16C148.21 27.7867 147.837 28.1 147.09 28.1H145.39V34.92C145.39 35.3067 145.27 35.6 145.03 35.8C144.803 36 144.51 36.1 144.15 36.1C143.79 36.1 143.49 36 143.25 35.8C143.01 35.6 142.89 35.3067 142.89 34.92V28.1H141.89C141.143 28.1 140.77 27.7867 140.77 27.16C140.77 26.5333 141.143 26.22 141.89 26.22H142.89V26.08C142.89 24.8267 143.217 23.8467 143.87 23.14C144.537 22.42 145.47 22.0133 146.67 21.92L147.19 21.88C147.723 21.84 148.097 21.9 148.31 22.06C148.537 22.2067 148.65 22.44 148.65 22.76C148.65 23.3333 148.323 23.6533 147.67 23.72L147.15 23.76ZM157.098 26.02C157.485 26.02 157.791 26.1267 158.018 26.34C158.245 26.5533 158.358 26.84 158.358 27.2V34.96C158.358 35.3067 158.238 35.5867 157.998 35.8C157.771 36.0133 157.471 36.12 157.098 36.12C156.738 36.12 156.451 36.02 156.238 35.82C156.025 35.62 155.918 35.3467 155.918 35V34.5C155.611 35.0333 155.198 35.4467 154.678 35.74C154.158 36.02 153.571 36.16 152.918 36.16C150.518 36.16 149.318 34.8133 149.318 32.12V27.2C149.318 26.84 149.431 26.5533 149.658 26.34C149.885 26.1267 150.185 26.02 150.558 26.02C150.945 26.02 151.251 26.1267 151.478 26.34C151.705 26.5533 151.818 26.84 151.818 27.2V32.14C151.818 32.8333 151.958 33.3467 152.238 33.68C152.518 34.0133 152.958 34.18 153.558 34.18C154.251 34.18 154.805 33.9533 155.218 33.5C155.645 33.0333 155.858 32.42 155.858 31.66V27.2C155.858 26.84 155.971 26.5533 156.198 26.34C156.425 26.1267 156.725 26.02 157.098 26.02ZM162.2 36.12C161.84 36.12 161.54 36.02 161.3 35.82C161.073 35.6067 160.96 35.3067 160.96 34.92V22.98C160.96 22.5933 161.073 22.3 161.3 22.1C161.54 21.9 161.84 21.8 162.2 21.8C162.56 21.8 162.86 21.9 163.1 22.1C163.34 22.3 163.46 22.5933 163.46 22.98V34.92C163.46 35.3067 163.34 35.6067 163.1 35.82C162.86 36.02 162.56 36.12 162.2 36.12ZM167.278 36.12C166.918 36.12 166.618 36.02 166.378 35.82C166.152 35.6067 166.038 35.3067 166.038 34.92V22.98C166.038 22.5933 166.152 22.3 166.378 22.1C166.618 21.9 166.918 21.8 167.278 21.8C167.638 21.8 167.938 21.9 168.178 22.1C168.418 22.3 168.538 22.5933 168.538 22.98V34.92C168.538 35.3067 168.418 35.6067 168.178 35.82C167.938 36.02 167.638 36.12 167.278 36.12ZM180.886 36.16C179.913 36.16 179.053 35.9533 178.306 35.54C177.573 35.1267 177.006 34.54 176.606 33.78C176.206 33.02 176.006 32.1333 176.006 31.12C176.006 30.1067 176.213 29.2133 176.626 28.44C177.053 27.6533 177.646 27.0467 178.406 26.62C179.166 26.1933 180.039 25.98 181.026 25.98C181.546 25.98 182.066 26.0533 182.586 26.2C183.119 26.3467 183.586 26.5467 183.986 26.8C184.413 27.08 184.626 27.4333 184.626 27.86C184.626 28.1533 184.553 28.3933 184.406 28.58C184.273 28.7533 184.093 28.84 183.866 28.84C183.719 28.84 183.566 28.8067 183.406 28.74C183.246 28.6733 183.086 28.5933 182.926 28.5C182.633 28.3267 182.353 28.1933 182.086 28.1C181.819 27.9933 181.513 27.94 181.166 27.94C180.339 27.94 179.699 28.2133 179.246 28.76C178.806 29.2933 178.586 30.0667 178.586 31.08C178.586 32.08 178.806 32.8533 179.246 33.4C179.699 33.9333 180.339 34.2 181.166 34.2C181.499 34.2 181.793 34.1533 182.046 34.06C182.313 33.9533 182.606 33.8133 182.926 33.64C183.126 33.52 183.299 33.4333 183.446 33.38C183.593 33.3133 183.739 33.28 183.886 33.28C184.099 33.28 184.279 33.3733 184.426 33.56C184.573 33.7467 184.646 33.98 184.646 34.26C184.646 34.4867 184.593 34.6867 184.486 34.86C184.393 35.02 184.233 35.1667 184.006 35.3C183.593 35.5667 183.113 35.78 182.566 35.94C182.019 36.0867 181.459 36.16 180.886 36.16ZM190.552 25.98C191.912 25.98 192.918 26.32 193.572 27C194.238 27.6667 194.572 28.6867 194.572 30.06V34.94C194.572 35.3 194.465 35.5867 194.252 35.8C194.038 36 193.745 36.1 193.372 36.1C193.025 36.1 192.738 35.9933 192.512 35.78C192.298 35.5667 192.192 35.2867 192.192 34.94V34.5C191.965 35.02 191.605 35.4267 191.112 35.72C190.632 36.0133 190.072 36.16 189.432 36.16C188.778 36.16 188.185 36.0267 187.652 35.76C187.118 35.4933 186.698 35.1267 186.392 34.66C186.085 34.1933 185.932 33.6733 185.932 33.1C185.932 32.38 186.112 31.8133 186.472 31.4C186.845 30.9867 187.445 30.6867 188.272 30.5C189.098 30.3133 190.238 30.22 191.692 30.22H192.192V29.76C192.192 29.1067 192.052 28.6333 191.772 28.34C191.492 28.0333 191.038 27.88 190.412 27.88C190.025 27.88 189.632 27.94 189.232 28.06C188.832 28.1667 188.358 28.3267 187.812 28.54C187.465 28.7133 187.212 28.8 187.052 28.8C186.812 28.8 186.612 28.7133 186.452 28.54C186.305 28.3667 186.232 28.14 186.232 27.86C186.232 27.6333 186.285 27.44 186.392 27.28C186.512 27.1067 186.705 26.9467 186.972 26.8C187.438 26.5467 187.992 26.3467 188.632 26.2C189.285 26.0533 189.925 25.98 190.552 25.98ZM189.932 34.36C190.598 34.36 191.138 34.14 191.552 33.7C191.978 33.2467 192.192 32.6667 192.192 31.96V31.54H191.832C190.938 31.54 190.245 31.58 189.752 31.66C189.258 31.74 188.905 31.88 188.692 32.08C188.478 32.28 188.372 32.5533 188.372 32.9C188.372 33.3267 188.518 33.68 188.812 33.96C189.118 34.2267 189.492 34.36 189.932 34.36ZM200.653 36.16C199.199 36.16 198.026 35.8733 197.132 35.3C196.706 35.0467 196.493 34.6867 196.493 34.22C196.493 33.9533 196.566 33.74 196.713 33.58C196.859 33.4067 197.039 33.32 197.253 33.32C197.479 33.32 197.793 33.4267 198.193 33.64C198.619 33.84 199.006 33.9933 199.353 34.1C199.713 34.2067 200.166 34.26 200.713 34.26C201.273 34.26 201.706 34.1667 202.013 33.98C202.333 33.7933 202.493 33.5333 202.493 33.2C202.493 32.9733 202.426 32.7933 202.293 32.66C202.173 32.5267 201.946 32.4067 201.613 32.3C201.293 32.18 200.799 32.0467 200.133 31.9C198.946 31.66 198.093 31.32 197.573 30.88C197.066 30.44 196.813 29.8333 196.813 29.06C196.813 28.4733 196.986 27.9467 197.333 27.48C197.679 27 198.153 26.6333 198.752 26.38C199.366 26.1133 200.059 25.98 200.833 25.98C201.393 25.98 201.933 26.0533 202.453 26.2C202.973 26.3333 203.439 26.5333 203.853 26.8C204.279 27.0667 204.493 27.42 204.493 27.86C204.493 28.1267 204.419 28.3533 204.273 28.54C204.126 28.7133 203.946 28.8 203.733 28.8C203.586 28.8 203.439 28.7733 203.293 28.72C203.159 28.6533 202.986 28.56 202.773 28.44C202.386 28.24 202.053 28.0933 201.773 28C201.493 27.8933 201.146 27.84 200.733 27.84C200.239 27.84 199.846 27.94 199.553 28.14C199.273 28.34 199.133 28.6133 199.133 28.96C199.133 29.2933 199.279 29.5467 199.573 29.72C199.866 29.8933 200.433 30.0667 201.273 30.24C202.166 30.4267 202.866 30.64 203.373 30.88C203.879 31.12 204.239 31.42 204.453 31.78C204.679 32.14 204.793 32.6 204.793 33.16C204.793 34.0667 204.413 34.7933 203.653 35.34C202.906 35.8867 201.906 36.16 200.653 36.16ZM214.56 33.32C214.786 33.32 214.966 33.4067 215.1 33.58C215.246 33.7533 215.32 33.9867 215.32 34.28C215.32 34.6933 215.073 35.04 214.58 35.32C214.126 35.5733 213.613 35.78 213.04 35.94C212.466 36.0867 211.92 36.16 211.4 36.16C209.826 36.16 208.58 35.7067 207.66 34.8C206.74 33.8933 206.28 32.6533 206.28 31.08C206.28 30.08 206.48 29.1933 206.88 28.42C207.28 27.6467 207.84 27.0467 208.56 26.62C209.293 26.1933 210.12 25.98 211.04 25.98C211.92 25.98 212.686 26.1733 213.34 26.56C213.993 26.9467 214.5 27.4933 214.86 28.2C215.22 28.9067 215.4 29.74 215.4 30.7C215.4 31.2733 215.146 31.56 214.64 31.56H208.74C208.82 32.48 209.08 33.16 209.52 33.6C209.96 34.0267 210.6 34.24 211.44 34.24C211.866 34.24 212.24 34.1867 212.56 34.08C212.893 33.9733 213.266 33.8267 213.68 33.64C214.08 33.4267 214.373 33.32 214.56 33.32ZM211.1 27.74C210.42 27.74 209.873 27.9533 209.46 28.38C209.06 28.8067 208.82 29.42 208.74 30.22H213.26C213.233 29.4067 213.033 28.7933 212.66 28.38C212.286 27.9533 211.766 27.74 211.1 27.74ZM226.414 36.16C224.961 36.16 223.788 35.8733 222.894 35.3C222.468 35.0467 222.254 34.6867 222.254 34.22C222.254 33.9533 222.328 33.74 222.474 33.58C222.621 33.4067 222.801 33.32 223.014 33.32C223.241 33.32 223.554 33.4267 223.954 33.64C224.381 33.84 224.768 33.9933 225.114 34.1C225.474 34.2067 225.928 34.26 226.474 34.26C227.034 34.26 227.468 34.1667 227.774 33.98C228.094 33.7933 228.254 33.5333 228.254 33.2C228.254 32.9733 228.188 32.7933 228.054 32.66C227.934 32.5267 227.708 32.4067 227.374 32.3C227.054 32.18 226.561 32.0467 225.894 31.9C224.708 31.66 223.854 31.32 223.334 30.88C222.828 30.44 222.574 29.8333 222.574 29.06C222.574 28.4733 222.748 27.9467 223.094 27.48C223.441 27 223.914 26.6333 224.514 26.38C225.128 26.1133 225.821 25.98 226.594 25.98C227.154 25.98 227.694 26.0533 228.214 26.2C228.734 26.3333 229.201 26.5333 229.614 26.8C230.041 27.0667 230.254 27.42 230.254 27.86C230.254 28.1267 230.181 28.3533 230.034 28.54C229.888 28.7133 229.708 28.8 229.494 28.8C229.348 28.8 229.201 28.7733 229.054 28.72C228.921 28.6533 228.748 28.56 228.534 28.44C228.148 28.24 227.814 28.0933 227.534 28C227.254 27.8933 226.908 27.84 226.494 27.84C226.001 27.84 225.608 27.94 225.314 28.14C225.034 28.34 224.894 28.6133 224.894 28.96C224.894 29.2933 225.041 29.5467 225.334 29.72C225.628 29.8933 226.194 30.0667 227.034 30.24C227.928 30.4267 228.628 30.64 229.134 30.88C229.641 31.12 230.001 31.42 230.214 31.78C230.441 32.14 230.554 32.6 230.554 33.16C230.554 34.0667 230.174 34.7933 229.414 35.34C228.668 35.8867 227.668 36.16 226.414 36.16ZM237.564 34.26C238.23 34.3 238.564 34.6 238.564 35.16C238.564 35.48 238.43 35.7267 238.164 35.9C237.91 36.06 237.544 36.1267 237.064 36.1L236.524 36.06C234.284 35.9 233.164 34.7 233.164 32.46V28.1H232.164C231.804 28.1 231.524 28.02 231.324 27.86C231.137 27.7 231.044 27.4667 231.044 27.16C231.044 26.8533 231.137 26.62 231.324 26.46C231.524 26.3 231.804 26.22 232.164 26.22H233.164V24.38C233.164 24.02 233.277 23.7333 233.504 23.52C233.73 23.3067 234.037 23.2 234.424 23.2C234.797 23.2 235.097 23.3067 235.324 23.52C235.55 23.7333 235.664 24.02 235.664 24.38V26.22H237.364C237.724 26.22 237.997 26.3 238.184 26.46C238.384 26.62 238.484 26.8533 238.484 27.16C238.484 27.4667 238.384 27.7 238.184 27.86C237.997 28.02 237.724 28.1 237.364 28.1H235.664V32.64C235.664 33.6267 236.117 34.1533 237.024 34.22L237.564 34.26ZM247.586 26.02C247.973 26.02 248.28 26.1267 248.506 26.34C248.733 26.5533 248.846 26.84 248.846 27.2V34.96C248.846 35.3067 248.726 35.5867 248.486 35.8C248.26 36.0133 247.96 36.12 247.586 36.12C247.226 36.12 246.94 36.02 246.726 35.82C246.513 35.62 246.406 35.3467 246.406 35V34.5C246.1 35.0333 245.686 35.4467 245.166 35.74C244.646 36.02 244.06 36.16 243.406 36.16C241.006 36.16 239.806 34.8133 239.806 32.12V27.2C239.806 26.84 239.92 26.5533 240.146 26.34C240.373 26.1267 240.673 26.02 241.046 26.02C241.433 26.02 241.74 26.1267 241.966 26.34C242.193 26.5533 242.306 26.84 242.306 27.2V32.14C242.306 32.8333 242.446 33.3467 242.726 33.68C243.006 34.0133 243.446 34.18 244.046 34.18C244.74 34.18 245.293 33.9533 245.706 33.5C246.133 33.0333 246.346 32.42 246.346 31.66V27.2C246.346 26.84 246.46 26.5533 246.686 26.34C246.913 26.1267 247.213 26.02 247.586 26.02ZM259.608 21.8C259.982 21.8 260.288 21.9067 260.528 22.12C260.768 22.3333 260.888 22.6133 260.888 22.96V34.92C260.888 35.28 260.775 35.5667 260.548 35.78C260.322 35.9933 260.022 36.1 259.648 36.1C259.275 36.1 258.975 35.9933 258.748 35.78C258.522 35.5667 258.408 35.28 258.408 34.92V34.42C258.115 34.9667 257.688 35.3933 257.128 35.7C256.582 36.0067 255.955 36.16 255.248 36.16C254.408 36.16 253.655 35.9467 252.988 35.52C252.335 35.0933 251.822 34.4933 251.448 33.72C251.088 32.9333 250.908 32.0333 250.908 31.02C250.908 30.0067 251.088 29.12 251.448 28.36C251.822 27.6 252.335 27.0133 252.988 26.6C253.642 26.1867 254.395 25.98 255.248 25.98C255.955 25.98 256.582 26.1267 257.128 26.42C257.675 26.7133 258.095 27.1267 258.388 27.66V22.92C258.388 22.5867 258.495 22.32 258.708 22.12C258.935 21.9067 259.235 21.8 259.608 21.8ZM255.908 34.22C256.708 34.22 257.322 33.9467 257.748 33.4C258.188 32.8533 258.408 32.0733 258.408 31.06C258.408 30.0467 258.188 29.2733 257.748 28.74C257.322 28.1933 256.715 27.92 255.928 27.92C255.128 27.92 254.508 28.1867 254.068 28.72C253.628 29.2533 253.408 30.02 253.408 31.02C253.408 32.0333 253.628 32.82 254.068 33.38C254.508 33.94 255.122 34.22 255.908 34.22ZM270.28 26.74C270.387 26.5 270.527 26.3267 270.7 26.22C270.887 26.1 271.087 26.04 271.3 26.04C271.607 26.04 271.88 26.1467 272.12 26.36C272.373 26.56 272.5 26.8133 272.5 27.12C272.5 27.2667 272.46 27.42 272.38 27.58L266.92 39.02C266.693 39.4733 266.34 39.7 265.86 39.7C265.553 39.7 265.28 39.6 265.04 39.4C264.813 39.2133 264.7 38.9733 264.7 38.68C264.7 38.5333 264.74 38.3667 264.82 38.18L266.18 35.32L262.46 27.58C262.393 27.4467 262.36 27.2933 262.36 27.12C262.36 26.8133 262.487 26.5533 262.74 26.34C263.007 26.1267 263.307 26.02 263.64 26.02C263.867 26.02 264.073 26.08 264.26 26.2C264.447 26.3067 264.593 26.48 264.7 26.72L267.5 32.9L270.28 26.74Z" fill="white"/>
<path d="M284.25 30.7134H299.075L294.537 36.0072C294.432 36.13 294.353 36.2717 294.305 36.4242C294.256 36.5766 294.239 36.7369 294.254 36.8959C294.284 37.217 294.445 37.5131 294.7 37.7192C294.955 37.9253 295.284 38.0245 295.615 37.9949C295.945 37.9653 296.25 37.8093 296.463 37.5614L302.713 30.2763C302.755 30.2184 302.792 30.1575 302.825 30.0942C302.825 30.0335 302.888 29.9971 302.913 29.9363C302.969 29.7971 302.999 29.6489 303 29.4992C302.999 29.3495 302.969 29.2014 302.913 29.0621C302.913 29.0014 302.85 28.965 302.825 28.9043C302.792 28.841 302.755 28.7801 302.713 28.7222L296.463 21.4371C296.345 21.3 296.198 21.1898 296.031 21.1143C295.865 21.0387 295.684 20.9997 295.5 21C295.208 20.9994 294.925 21.0983 294.7 21.2793C294.573 21.3812 294.469 21.5064 294.392 21.6476C294.315 21.7889 294.268 21.9435 294.253 22.1025C294.238 22.2615 294.255 22.4219 294.304 22.5744C294.353 22.7269 294.432 22.8686 294.537 22.9913L299.075 28.2851H284.25C283.918 28.2851 283.601 28.413 283.366 28.6407C283.132 28.8684 283 29.1772 283 29.4992C283 29.8213 283.132 30.1301 283.366 30.3578C283.601 30.5855 283.918 30.7134 284.25 30.7134Z" fill="white"/>
</g>
<defs>
<filter id="filter0_d_366:3573" x="0" y="0" width="357" height="78" filterUnits="userSpaceOnUse" color-interpolation-filters="sRGB">
<feFlood flood-opacity="0" result="BackgroundImageFix"/>
<feColorMatrix in="SourceAlpha" type="matrix" values="0 0 0 0 0 0 0 0 0 0 0 0 0 0 0 0 0 0 127 0" result="hardAlpha"/>
<feOffset dy="4"/>
<feGaussianBlur stdDeviation="2"/>
<feComposite in2="hardAlpha" operator="out"/>
<feColorMatrix type="matrix" values="0 0 0 0 0 0 0 0 0 0 0 0 0 0 0 0 0 0 0.25 0"/>
<feBlend mode="normal" in2="BackgroundImageFix" result="effect1_dropShadow_366:3573"/>
<feBlend mode="normal" in="SourceGraphic" in2="effect1_dropShadow_366:3573" result="shape"/>
</filter>
</defs>
</svg>
