<svg width="357" height="70" viewBox="0 0 357 70" fill="none" xmlns="http://www.w3.org/2000/svg"><g filter="url(#filter0_d_3663578)"><rect x="4" y="2" width="349" height="60" rx="23" fill="#405BA3"/><rect x="4" width="349" height="60" rx="23" fill="#597BD5"/><path d="M65.8 34.38c.16.24.24.4733.24.7 0 .3067-.1267.56-.38.76-.24.2-.5267.3-.86.3-.2133 0-.42-.0467-.62-.14-.1867-.1067-.3467-.26-.48-.46l-2.66-4.04c-.2667-.4267-.5533-.7267-.86-.9-.2933-.1733-.68-.26-1.16-.26h-1.96v4.48c0 .4-.1133.72-.34.96-.2267.2267-.5333.34-.92.34-.3867 0-.7-.1133-.94-.34-.2267-.24-.34-.56-.34-.96v-11.7c0-.3867.1067-.6867.32-.9.2267-.2133.5333-.32.92-.32h5c1.6 0 2.8133.36 3.64 1.08.84.7067 1.26 1.7333 1.26 3.08 0 1.0933-.3133 1.9933-.94 2.7-.6133.6933-1.4867 1.14-2.62 1.34.3867.0933.7267.26 1.02.5s.58.5733.86 1l1.82 2.78zm-5.4-6.02c.9733 0 1.6867-.18 2.14-.54.4533-.3733.68-.94.68-1.7 0-.7733-.2267-1.3333-.68-1.68-.4533-.36-1.1667-.54-2.14-.54h-3.36v4.46h3.36zm15.5463 4.96c.2266 0 .4066.0867.54.26.1466.1733.22.4067.22.7 0 .4133-.2467.76-.74 1.04-.4534.2533-.9667.46-1.54.62-.5734.1467-1.12.22-1.6401.22-1.5733 0-2.8199-.4533-3.7399-1.36-.92-.9067-1.38-2.1467-1.38-3.72 0-1 .2-1.8867.6-2.66.4-.7733.96-1.3733 1.68-1.8.7333-.4267 1.56-.64 2.48-.64.88 0 1.6466.1933 2.3.58.6533.3867 1.16.9333 1.52 1.64.36.7067.54 1.54.54 2.5 0 .5733-.2534.86-.76.86h-5.9c.08.92.34 1.6.78 2.04.44.4267 1.08.64 1.92.64.4266 0 .8-.0533 1.12-.16.3333-.1067.7066-.2533 1.12-.44.4-.2133.6933-.32.88-.32zm-3.46-5.58c-.68 0-1.2267.2133-1.64.64-.4.4267-.64 1.04-.72 1.84h4.52c-.0267-.8133-.2267-1.4267-.6-1.84-.3734-.4267-.8934-.64-1.56-.64zm10.585-1.76c1.36 0 2.3666.34 3.02 1.02.6666.6667 1 1.6867 1 3.06v4.88c0 .36-.1067.6467-.32.86-.2134.2-.5067.3-.88.3-.3467 0-.6334-.1067-.86-.32-.2134-.2133-.32-.4933-.32-.84v-.44c-.2267.52-.5867.9267-1.08 1.22-.48.2933-1.04.44-1.68.44-.6534 0-1.2467-.1333-1.7801-.4-.5333-.2667-.9533-.6333-1.2599-1.1-.3067-.4667-.46-.9867-.46-1.56 0-.72.18-1.2867.54-1.7.3733-.4133.9733-.7133 1.8-.9.8266-.1867 1.9666-.28 3.42-.28h.5v-.46c0-.6533-.14-1.1267-.42-1.42-.28-.3067-.7334-.46-1.36-.46-.3867 0-.78.06-1.18.18-.4.1067-.8734.2667-1.42.48-.3467.1733-.6.26-.76.26-.24 0-.44-.0867-.6-.26-.1467-.1733-.22-.4-.22-.68 0-.2267.0533-.42.16-.58.12-.1733.3133-.3333.58-.48.4666-.2533 1.02-.4533 1.66-.6.6533-.1467 1.2933-.22 1.92-.22zm-.62 8.38c.6666 0 1.2066-.22 1.62-.66.4266-.4533.64-1.0333.64-1.74v-.42h-.36c-.8934 0-1.5867.04-2.08.12-.4934.08-.8467.22-1.06.42-.2134.2-.32.4733-.32.82 0 .4267.1466.78.44 1.06.3066.2667.68.4 1.12.4zM97.792 21.8c.3734 0 .68.1067.92.32s.36.4933.36.84v11.96c0 .36-.1133.6467-.34.86-.2266.2133-.5266.32-.9.32-.3733 0-.6733-.1067-.9-.32-.2266-.2133-.34-.5-.34-.86v-.5c-.2933.5467-.72.9733-1.28 1.28-.5466.3067-1.1733.46-1.88.46-.84 0-1.5933-.2133-2.26-.64-.6533-.4267-1.1666-1.0267-1.54-1.8-.36-.7867-.54-1.6867-.54-2.7s.18-1.9.54-2.66c.3734-.76.8867-1.3467 1.54-1.76.6534-.4133 1.4067-.62 2.26-.62.7067 0 1.3334.1467 1.88.44.5467.2933.9667.7067 1.26 1.24v-4.74c0-.3333.1067-.6.32-.8.2267-.2133.5267-.32.9-.32zm-3.7 12.42c.8 0 1.4134-.2733 1.84-.82.44-.5467.66-1.3267.66-2.34 0-1.0133-.22-1.7867-.66-2.32-.4266-.5467-1.0333-.82-1.82-.82-.8 0-1.42.2667-1.86.8-.44.5333-.66 1.3-.66 2.3 0 1.0133.22 1.8.66 2.36.44.56 1.0534.84 1.84.84zm18.061.04c.667.04 1 .34 1 .9 0 .32-.133.5667-.4.74-.253.16-.62.2267-1.1.2l-.54-.04c-2.24-.16-3.36-1.36-3.36-3.6V28.1h-1c-.36 0-.64-.08-.84-.24-.186-.16-.28-.3933-.28-.7s.094-.54.28-.7c.2-.16.48-.24.84-.24h1v-1.84c0-.36.114-.6467.34-.86.227-.2133.534-.32.92-.32.374 0 .674.1067.9.32.227.2133.34.5.34.86v1.84h1.7c.36 0 .634.08.82.24.2.16.3.3933.3.7s-.1.54-.3.7c-.186.16-.46.24-.82.24h-1.7v4.54c0 .9867.454 1.5133 1.36 1.58l.54.04zm8.023-8.28c2.294 0 3.44 1.34 3.44 4.02v4.92c0 .3733-.113.6667-.34.88-.213.2133-.513.32-.9.32-.386 0-.693-.1067-.92-.32-.226-.2133-.34-.5067-.34-.88V30c0-.7067-.146-1.22-.44-1.54-.28-.3333-.726-.5-1.34-.5-.72 0-1.3.2267-1.74.68-.426.4533-.64 1.06-.64 1.82v4.46c0 .3733-.113.6667-.34.88-.226.2133-.533.32-.92.32-.386 0-.693-.1067-.92-.32-.213-.2133-.32-.5067-.32-.88V22.96c0-.3467.114-.6267.34-.84.24-.2133.547-.32.92-.32.374 0 .674.1.9.3.227.2.34.4733.34.82v4.66c.334-.52.774-.9133 1.32-1.18.56-.28 1.194-.42 1.9-.42zm13.719 7.34c.227 0 .407.0867.54.26.147.1733.22.4067.22.7 0 .4133-.246.76-.74 1.04-.453.2533-.966.46-1.54.62-.573.1467-1.12.22-1.64.22-1.573 0-2.82-.4533-3.74-1.36-.92-.9067-1.38-2.1467-1.38-3.72 0-1 .2-1.8867.6-2.66.4-.7733.96-1.3733 1.68-1.8.734-.4267 1.56-.64 2.48-.64.88 0 1.647.1933 2.3.58.654.3867 1.16.9333 1.52 1.64.36.7067.54 1.54.54 2.5 0 .5733-.253.86-.76.86h-5.9c.08.92.34 1.6.78 2.04.44.4267 1.08.64 1.92.64.427 0 .8-.0533 1.12-.16.334-.1067.707-.2533 1.12-.44.4-.2133.694-.32.88-.32zm-3.46-5.58c-.68 0-1.226.2133-1.64.64-.4.4267-.64 1.04-.72 1.84h4.52c-.026-.8133-.226-1.4267-.6-1.84-.373-.4267-.893-.64-1.56-.64zm16.715-3.98c-.613.04-1.06.2267-1.34.56-.28.3333-.42.8133-.42 1.44v.46h1.7c.747 0 1.12.3133 1.12.94 0 .6267-.373.94-1.12.94h-1.7v6.82c0 .3867-.12.68-.36.88-.227.2-.52.3-.88.3s-.66-.1-.9-.3c-.24-.2-.36-.4933-.36-.88V28.1h-1c-.747 0-1.12-.3133-1.12-.94 0-.6267.373-.94 1.12-.94h1v-.14c0-1.2533.327-2.2333.98-2.94.667-.72 1.6-1.1267 2.8-1.22l.52-.04c.533-.04.907.02 1.12.18.227.1467.34.38.34.7 0 .5733-.327.8933-.98.96l-.52.04zm9.948 2.26c.387 0 .693.1067.92.32.227.2133.34.5.34.86v7.76c0 .3467-.12.6267-.36.84-.227.2133-.527.32-.9.32-.36 0-.647-.1-.86-.3-.213-.2-.32-.4733-.32-.82v-.5c-.307.5333-.72.9467-1.24 1.24-.52.28-1.107.42-1.76.42-2.4 0-3.6-1.3467-3.6-4.04V27.2c0-.36.113-.6467.34-.86.227-.2133.527-.32.9-.32.387 0 .693.1067.92.32.227.2133.34.5.34.86v4.94c0 .6933.14 1.2067.42 1.54.28.3333.72.5 1.32.5.693 0 1.247-.2267 1.66-.68.427-.4667.64-1.08.64-1.84V27.2c0-.36.113-.6467.34-.86.227-.2133.527-.32.9-.32zm5.102 10.1c-.36 0-.66-.1-.9-.3-.227-.2133-.34-.5133-.34-.9V22.98c0-.3867.113-.68.34-.88.24-.2.54-.3.9-.3s.66.1.9.3c.24.2.36.4933.36.88v11.94c0 .3867-.12.6867-.36.9-.24.2-.54.3-.9.3zm5.078 0c-.36 0-.66-.1-.9-.3-.226-.2133-.34-.5133-.34-.9V22.98c0-.3867.114-.68.34-.88.24-.2.54-.3.9-.3s.66.1.9.3c.24.2.36.4933.36.88v11.94c0 .3867-.12.6867-.36.9-.24.2-.54.3-.9.3zm13.608.04c-.973 0-1.833-.2067-2.58-.62-.733-.4133-1.3-1-1.7-1.76-.4-.76-.6-1.6467-.6-2.66s.207-1.9067.62-2.68c.427-.7867 1.02-1.3933 1.78-1.82.76-.4267 1.633-.64 2.62-.64.52 0 1.04.0733 1.56.22.533.1467 1 .3467 1.4.6.427.28.64.6333.64 1.06 0 .2933-.073.5333-.22.72-.133.1733-.313.26-.54.26-.147 0-.3-.0333-.46-.1-.16-.0667-.32-.1467-.48-.24-.293-.1733-.573-.3067-.84-.4-.267-.1067-.573-.16-.92-.16-.827 0-1.467.2733-1.92.82-.44.5333-.66 1.3067-.66 2.32 0 1 .22 1.7733.66 2.32.453.5333 1.093.8 1.92.8.333 0 .627-.0467.88-.14.267-.1067.56-.2467.88-.42.2-.12.373-.2067.52-.26.147-.0667.293-.1.44-.1.213 0 .393.0933.54.28.147.1867.22.42.22.7 0 .2267-.053.4267-.16.6-.093.16-.253.3067-.48.44-.413.2667-.893.48-1.44.64-.547.1467-1.107.22-1.68.22zm9.666-10.18c1.36 0 2.366.34 3.02 1.02.666.6667 1 1.6867 1 3.06v4.88c0 .36-.107.6467-.32.86-.214.2-.507.3-.88.3-.347 0-.634-.1067-.86-.32-.214-.2133-.32-.4933-.32-.84v-.44c-.227.52-.587.9267-1.08 1.22-.48.2933-1.04.44-1.68.44-.654 0-1.247-.1333-1.78-.4-.534-.2667-.954-.6333-1.26-1.1-.307-.4667-.46-.9867-.46-1.56 0-.72.18-1.2867.54-1.7.373-.4133.973-.7133 1.8-.9.826-.1867 1.966-.28 3.42-.28h.5v-.46c0-.6533-.14-1.1267-.42-1.42-.28-.3067-.734-.46-1.36-.46-.387 0-.78.06-1.18.18-.4.1067-.874.2667-1.42.48-.347.1733-.6.26-.76.26-.24 0-.44-.0867-.6-.26-.147-.1733-.22-.4-.22-.68 0-.2267.053-.42.16-.58.12-.1733.313-.3333.58-.48.466-.2533 1.02-.4533 1.66-.6.653-.1467 1.293-.22 1.92-.22zm-.62 8.38c.666 0 1.206-.22 1.62-.66.426-.4533.64-1.0333.64-1.74v-.42h-.36c-.894 0-1.587.04-2.08.12-.494.08-.847.22-1.06.42-.214.2-.32.4733-.32.82 0 .4267.146.78.44 1.06.306.2667.68.4 1.12.4zm10.721 1.8c-1.454 0-2.627-.2867-3.521-.86-.426-.2533-.639-.6133-.639-1.08 0-.2667.073-.48.22-.64.146-.1733.326-.26.54-.26.226 0 .54.1067.94.32.426.2.813.3533 1.16.46.36.1067.813.16 1.36.16.56 0 .993-.0933 1.3-.28.32-.1867.48-.4467.48-.78 0-.2267-.067-.4067-.2-.54-.12-.1333-.347-.2533-.68-.36-.32-.12-.814-.2533-1.48-.4-1.187-.24-2.04-.58-2.56-1.02-.507-.44-.76-1.0467-.76-1.82 0-.5867.173-1.1133.52-1.58.346-.48.82-.8467 1.419-1.1.614-.2667 1.307-.4 2.081-.4.56 0 1.1.0733 1.62.22.52.1333.986.3333 1.4.6.426.2667.64.62.64 1.06 0 .2667-.074.4933-.22.68-.147.1733-.327.26-.54.26-.147 0-.294-.0267-.44-.08-.134-.0667-.307-.16-.52-.28-.387-.2-.72-.3467-1-.44-.28-.1067-.627-.16-1.04-.16-.494 0-.887.1-1.18.3-.28.2-.42.4733-.42.82 0 .3333.146.5867.44.76.293.1733.86.3467 1.7.52.893.1867 1.593.4 2.1.64.506.24.866.54 1.08.9.226.36.34.82.34 1.38 0 .9067-.38 1.6333-1.14 2.18-.747.5467-1.747.82-3 .82zm13.907-2.84c.226 0 .406.0867.54.26.146.1733.22.4067.22.7 0 .4133-.247.76-.74 1.04-.454.2533-.967.46-1.54.62-.574.1467-1.12.22-1.64.22-1.574 0-2.82-.4533-3.74-1.36-.92-.9067-1.38-2.1467-1.38-3.72 0-1 .2-1.8867.6-2.66.4-.7733.96-1.3733 1.68-1.8.733-.4267 1.56-.64 2.48-.64.88 0 1.646.1933 2.3.58.653.3867 1.16.9333 1.52 1.64.36.7067.54 1.54.54 2.5 0 .5733-.254.86-.76.86h-5.9c.08.92.34 1.6.78 2.04.44.4267 1.08.64 1.92.64.426 0 .8-.0533 1.12-.16.333-.1067.706-.2533 1.12-.44.4-.2133.693-.32.88-.32zm-3.46-5.58c-.68 0-1.227.2133-1.64.64-.4.4267-.64 1.04-.72 1.84h4.52c-.027-.8133-.227-1.4267-.6-1.84-.374-.4267-.894-.64-1.56-.64zm15.314 8.42c-1.453 0-2.626-.2867-3.52-.86-.426-.2533-.64-.6133-.64-1.08 0-.2667.074-.48.22-.64.147-.1733.327-.26.54-.26.227 0 .54.1067.94.32.427.2.814.3533 1.16.46.36.1067.814.16 1.36.16.56 0 .994-.0933 1.3-.28.32-.1867.48-.4467.48-.78 0-.2267-.066-.4067-.2-.54-.12-.1333-.346-.2533-.68-.36-.32-.12-.813-.2533-1.48-.4-1.186-.24-2.04-.58-2.56-1.02-.506-.44-.76-1.0467-.76-1.82 0-.5867.174-1.1133.52-1.58.347-.48.82-.8467 1.42-1.1.614-.2667 1.307-.4 2.08-.4.56 0 1.1.0733 1.62.22.52.1333.987.3333 1.4.6.427.2667.64.62.64 1.06 0 .2667-.073.4933-.22.68-.146.1733-.326.26-.54.26-.146 0-.293-.0267-.44-.08-.133-.0667-.306-.16-.52-.28-.386-.2-.72-.3467-1-.44-.28-.1067-.626-.16-1.04-.16-.493 0-.886.1-1.18.3-.28.2-.42.4733-.42.82 0 .3333.147.5867.44.76.294.1733.86.3467 1.7.52.894.1867 1.594.4 2.1.64.507.24.867.54 1.08.9.227.36.34.82.34 1.38 0 .9067-.38 1.6333-1.14 2.18-.746.5467-1.746.82-3 .82zm11.15-1.9c.666.04 1 .34 1 .9 0 .32-.134.5667-.4.74-.254.16-.62.2267-1.1.2l-.54-.04c-2.24-.16-3.36-1.36-3.36-3.6V28.1h-1c-.36 0-.64-.08-.84-.24-.187-.16-.28-.3933-.28-.7s.093-.54.28-.7c.2-.16.48-.24.84-.24h1v-1.84c0-.36.113-.6467.34-.86.226-.2133.533-.32.92-.32.373 0 .673.1067.9.32.226.2133.34.5.34.86v1.84h1.7c.36 0 .633.08.82.24.2.16.3.3933.3.7s-.1.54-.3.7c-.187.16-.46.24-.82.24h-1.7v4.54c0 .9867.453 1.5133 1.36 1.58l.54.04zm10.022-8.24c.387 0 .694.1067.92.32.227.2133.34.5.34.86v7.76c0 .3467-.12.6267-.36.84-.226.2133-.526.32-.9.32-.36 0-.646-.1-.86-.3-.213-.2-.32-.4733-.32-.82v-.5c-.306.5333-.72.9467-1.24 1.24-.52.28-1.106.42-1.76.42-2.4 0-3.6-1.3467-3.6-4.04V27.2c0-.36.114-.6467.34-.86.227-.2133.527-.32.9-.32.387 0 .694.1067.92.32.227.2133.34.5.34.86v4.94c0 .6933.14 1.2067.42 1.54.28.3333.72.5 1.32.5.694 0 1.247-.2267 1.66-.68.427-.4667.64-1.08.64-1.84V27.2c0-.36.114-.6467.34-.86.227-.2133.527-.32.9-.32zm12.022-4.22c.374 0 .68.1067.92.32s.36.4933.36.84v11.96c0 .36-.113.6467-.34.86-.226.2133-.526.32-.9.32-.373 0-.673-.1067-.9-.32-.226-.2133-.34-.5-.34-.86v-.5c-.293.5467-.72.9733-1.28 1.28-.546.3067-1.173.46-1.88.46-.84 0-1.593-.2133-2.26-.64-.653-.4267-1.166-1.0267-1.54-1.8-.36-.7867-.54-1.6867-.54-2.7s.18-1.9.54-2.66c.374-.76.887-1.3467 1.54-1.76.654-.4133 1.407-.62 2.26-.62.707 0 1.334.1467 1.88.44.547.2933.967.7067 1.26 1.24v-4.74c0-.3333.107-.6.32-.8.227-.2133.527-.32.9-.32zm-3.7 12.42c.8 0 1.414-.2733 1.84-.82.44-.5467.66-1.3267.66-2.34 0-1.0133-.22-1.7867-.66-2.32-.426-.5467-1.033-.82-1.82-.82-.8 0-1.42.2667-1.86.8-.44.5333-.66 1.3-.66 2.3 0 1.0133.22 1.8.66 2.36.44.56 1.054.84 1.84.84zm14.372-7.48c.107-.24.247-.4133.42-.52.187-.12.387-.18.6-.18.307 0 .58.1067.82.32.253.2.38.4533.38.76 0 .1467-.04.3-.12.46l-5.46 11.44c-.227.4533-.58.68-1.06.68-.307 0-.58-.1-.82-.3-.227-.1867-.34-.4267-.34-.72 0-.1467.04-.3133.12-.5l1.36-2.86-3.72-7.74c-.067-.1333-.1-.2867-.1-.46 0-.3067.127-.5667.38-.78.267-.2133.567-.32.9-.32.227 0 .433.06.62.18.187.1067.333.28.44.52l2.8 6.18 2.78-6.16zM284.25 30.7134h14.825l-4.538 5.2938c-.105.1228-.184.2645-.232.417-.049.1524-.066.3127-.051.4717.03.3211.191.6172.446.8233.255.2061.584.3053.915.2757.33-.0296.635-.1856.848-.4335l6.25-7.2851c.042-.0579.079-.1188.112-.1821 0-.0607.063-.0971.088-.1579.056-.1392.086-.2874.087-.4371-.001-.1497-.031-.2978-.087-.4371 0-.0607-.063-.0971-.088-.1578-.033-.0633-.07-.1242-.112-.1821l-6.25-7.2851c-.118-.1371-.265-.2473-.432-.3228-.166-.0756-.347-.1146-.531-.1143-.292-.0006-.575.0983-.8.2793-.127.1019-.231.2271-.308.3683-.077.1413-.124.2959-.139.4549-.015.159.002.3194.051.4719.049.1525.128.2942.233.4169l4.538 5.2938H284.25c-.332 0-.649.1279-.884.3556-.234.2277-.366.5365-.366.8585 0 .3221.132.6309.366.8586.235.2277.552.3556.884.3556z" fill="#fff"/></g><defs><filter id="filter0_d_3663578" x="0" y="0" width="357" height="70" filterUnits="userSpaceOnUse" color-interpolation-filters="sRGB"><feFlood flood-opacity="0" result="BackgroundImageFix"/><feColorMatrix in="SourceAlpha" values="0 0 0 0 0 0 0 0 0 0 0 0 0 0 0 0 0 0 127 0" result="hardAlpha"/><feOffset dy="4"/><feGaussianBlur stdDeviation="2"/><feComposite in2="hardAlpha" operator="out"/><feColorMatrix values="0 0 0 0 0 0 0 0 0 0 0 0 0 0 0 0 0 0 0.25 0"/><feBlend in2="BackgroundImageFix" result="effect1_dropShadow_3663578"/><feBlend in="SourceGraphic" in2="effect1_dropShadow_3663578" result="shape"/></filter></defs></svg>