<svg width="263" height="70" viewBox="0 0 263 70" fill="none" xmlns="http://www.w3.org/2000/svg"><g filter="url(#filter0_d_1175939)"><rect x="4" y="2" width="255" height="60" rx="23" fill="#405BA3"/><rect x="4" width="255" height="60" rx="23" fill="#597BD5"/><path d="M61.78 22.46c.2133-.4533.5667-.68 1.06-.68.3333 0 .6333.1067.9.32.2667.2133.4.48.4.8 0 .1467-.04.3133-.12.5l-5.54 11.92c-.12.2533-.3067.4533-.56.6-.24.1333-.5.2-.78.2s-.5467-.0667-.8-.2c-.24-.1467-.42-.3467-.54-.6L50.28 23.4c-.08-.1867-.12-.3467-.12-.48 0-.3333.1333-.6067.4-.82.28-.2133.5933-.32.94-.32.2267 0 .4333.06.62.18.2.1067.3533.2733.46.5l4.6 10.22 4.6-10.22zm5.9553 13.66c-.36 0-.66-.1-.9-.3-.2267-.2133-.34-.5133-.34-.9V27.2c0-.3867.1133-.68.34-.88.24-.2.54-.3.9-.3s.66.1.9.3c.24.2.36.4933.36.88v7.72c0 .3867-.12.6867-.36.9-.24.2-.54.3-.9.3zm0-11.88c-.4533 0-.8133-.12-1.08-.36-.2667-.2533-.4-.58-.4-.98s.1333-.72.4-.96c.2667-.24.6267-.36 1.08-.36.44 0 .7933.12 1.06.36.28.24.42.56.42.96 0 .4-.1333.7267-.4.98-.2667.24-.6267.36-1.08.36zm11.5781 9.08c.2267 0 .4067.0867.54.26.1467.1733.22.4067.22.7 0 .4133-.2466.76-.74 1.04-.4533.2533-.9666.46-1.54.62-.5733.1467-1.12.22-1.64.22-1.5733 0-2.82-.4533-3.74-1.36-.92-.9067-1.38-2.1467-1.38-3.72 0-1 .2-1.8867.6-2.66.4-.7733.96-1.3733 1.68-1.8.7334-.4267 1.56-.64 2.48-.64.88 0 1.6467.1933 2.3.58.6534.3867 1.16.9333 1.52 1.64.36.7067.54 1.54.54 2.5 0 .5733-.2533.86-.76.86h-5.9c.08.92.34 1.6.78 2.04.44.4267 1.08.64 1.92.64.4267 0 .8-.0533 1.12-.16.3334-.1067.7067-.2533 1.12-.44.4-.2133.6934-.32.88-.32zm-3.46-5.58c-.68 0-1.2266.2133-1.64.64-.4.4267-.64 1.04-.72 1.84h4.52c-.0266-.8133-.2266-1.4267-.6-1.84-.3733-.4267-.8933-.64-1.56-.64zm19.4088-.98c.0933-.24.2267-.42.4-.54.1867-.12.3867-.18.6-.18.3067 0 .58.1067.82.32.2533.2.38.4533.38.76 0 .1733-.0333.3267-.1.46l-3.3 7.74c-.1067.2533-.2733.4467-.5.58-.2133.1333-.4533.2-.72.2-.2533 0-.4933-.0667-.72-.2-.2133-.1333-.3733-.3267-.48-.58l-2.38-5.72-2.3 5.72c-.1067.2533-.2733.4467-.5.58-.2133.1333-.4533.2-.72.2-.2533 0-.4933-.0667-.72-.2-.2267-.1333-.3933-.3267-.5-.58l-3.28-7.74c-.0667-.1733-.1-.32-.1-.44 0-.3067.1333-.5667.4-.78.2667-.2267.56-.34.88-.34.2267 0 .4333.06.62.18.1867.12.3267.3.42.54l2.36 6.1 2.42-6.04c.1067-.2533.26-.44.46-.56.2-.1333.42-.2.66-.2.24 0 .46.0667.66.2.2.12.3533.3067.46.56l2.44 6.06 2.34-6.1zm20.8388 7.62c.16.24.24.4733.24.7 0 .3067-.127.56-.38.76-.24.2-.527.3-.86.3-.214 0-.42-.0467-.62-.14-.187-.1067-.347-.26-.48-.46l-2.66-4.04c-.267-.4267-.554-.7267-.86-.9-.294-.1733-.68-.26-1.16-.26h-1.96v4.48c0 .4-.114.72-.34.96-.227.2267-.534.34-.92.34-.387 0-.7-.1133-.94-.34-.227-.24-.34-.56-.34-.96v-11.7c0-.3867.106-.6867.32-.9.226-.2133.533-.32.92-.32h5c1.6 0 2.813.36 3.64 1.08.84.7067 1.26 1.7333 1.26 3.08 0 1.0933-.314 1.9933-.94 2.7-.614.6933-1.487 1.14-2.62 1.34.386.0933.726.26 1.02.5.293.24.58.5733.86 1l1.82 2.78zm-5.4-6.02c.973 0 1.686-.18 2.14-.54.453-.3733.68-.94.68-1.7 0-.7733-.227-1.3333-.68-1.68-.454-.36-1.167-.54-2.14-.54h-3.36v4.46h3.36zm15.546 4.96c.227 0 .407.0867.54.26.147.1733.22.4067.22.7 0 .4133-.247.76-.74 1.04-.453.2533-.967.46-1.54.62-.573.1467-1.12.22-1.64.22-1.573 0-2.82-.4533-3.74-1.36-.92-.9067-1.38-2.1467-1.38-3.72 0-1 .2-1.8867.6-2.66.4-.7733.96-1.3733 1.68-1.8.733-.4267 1.56-.64 2.48-.64.88 0 1.647.1933 2.3.58.653.3867 1.16.9333 1.52 1.64.36.7067.54 1.54.54 2.5 0 .5733-.253.86-.76.86h-5.9c.08.92.34 1.6.78 2.04.44.4267 1.08.64 1.92.64.427 0 .8-.0533 1.12-.16.333-.1067.707-.2533 1.12-.44.4-.2133.693-.32.88-.32zm-3.46-5.58c-.68 0-1.227.2133-1.64.64-.4.4267-.64 1.04-.72 1.84h4.52c-.027-.8133-.227-1.4267-.6-1.84-.373-.4267-.893-.64-1.56-.64zm9.885 8.42c-1.453 0-2.627-.2867-3.52-.86-.427-.2533-.64-.6133-.64-1.08 0-.2667.073-.48.22-.64.147-.1733.327-.26.54-.26.227 0 .54.1067.94.32.427.2.813.3533 1.16.46.36.1067.813.16 1.36.16.56 0 .993-.0933 1.3-.28.32-.1867.48-.4467.48-.78 0-.2267-.067-.4067-.2-.54-.12-.1333-.347-.2533-.68-.36-.32-.12-.813-.2533-1.48-.4-1.187-.24-2.04-.58-2.56-1.02-.507-.44-.76-1.0467-.76-1.82 0-.5867.173-1.1133.52-1.58.347-.48.82-.8467 1.42-1.1.613-.2667 1.307-.4 2.08-.4.56 0 1.1.0733 1.62.22.52.1333.987.3333 1.4.6.427.2667.64.62.64 1.06 0 .2667-.073.4933-.22.68-.147.1733-.327.26-.54.26-.147 0-.293-.0267-.44-.08-.133-.0667-.307-.16-.52-.28-.387-.2-.72-.3467-1-.44-.28-.1067-.627-.16-1.04-.16-.493 0-.887.1-1.18.3-.28.2-.42.4733-.42.82 0 .3333.147.5867.44.76.293.1733.86.3467 1.7.52.893.1867 1.593.4 2.1.64.507.24.867.54 1.08.9.227.36.34.82.34 1.38 0 .9067-.38 1.6333-1.14 2.18-.747.5467-1.747.82-3 .82zm13.887-10.14c.387 0 .693.1067.92.32.227.2133.34.5.34.86v7.76c0 .3467-.12.6267-.36.84-.227.2133-.527.32-.9.32-.36 0-.647-.1-.86-.3-.213-.2-.32-.4733-.32-.82v-.5c-.307.5333-.72.9467-1.24 1.24-.52.28-1.107.42-1.76.42-2.4 0-3.6-1.3467-3.6-4.04V27.2c0-.36.113-.6467.34-.86.227-.2133.527-.32.9-.32.387 0 .693.1067.92.32.227.2133.34.5.34.86v4.94c0 .6933.14 1.2067.42 1.54.28.3333.72.5 1.32.5.693 0 1.247-.2267 1.66-.68.427-.4667.64-1.08.64-1.84V27.2c0-.36.113-.6467.34-.86.227-.2133.527-.32.9-.32zm15.482-.04c1.067 0 1.88.32 2.44.96.573.6267.86 1.6467.86 3.06v4.92c0 .3867-.12.6867-.36.9-.227.2-.527.3-.9.3-.36 0-.66-.1-.9-.3-.227-.2133-.34-.5133-.34-.9V30c0-.7333-.133-1.2533-.4-1.56-.253-.32-.647-.48-1.18-.48-.653 0-1.173.2267-1.56.68-.387.44-.58 1.0467-.58 1.82v4.46c0 .3867-.12.6867-.36.9-.227.2-.52.3-.88.3s-.66-.1-.9-.3c-.24-.2133-.36-.5133-.36-.9V30c0-.7333-.133-1.2533-.4-1.56-.253-.32-.647-.48-1.18-.48-.653 0-1.173.2267-1.56.68-.373.44-.56 1.0467-.56 1.82v4.46c0 .3867-.12.6867-.36.9-.24.2-.54.3-.9.3s-.66-.1-.9-.3c-.227-.2133-.34-.5133-.34-.9v-7.74c0-.3733.12-.66.36-.86.24-.2.54-.3.9-.3.347 0 .627.1.84.3.227.1867.34.46.34.82v.48c.307-.5333.713-.94 1.22-1.22.52-.28 1.113-.42 1.78-.42 1.467 0 2.447.6133 2.94 1.84.293-.56.727-1.0067 1.3-1.34.573-.3333 1.22-.5 1.94-.5zm13.581 7.34c.227 0 .407.0867.54.26.147.1733.22.4067.22.7 0 .4133-.247.76-.74 1.04-.453.2533-.967.46-1.54.62-.573.1467-1.12.22-1.64.22-1.573 0-2.82-.4533-3.74-1.36-.92-.9067-1.38-2.1467-1.38-3.72 0-1 .2-1.8867.6-2.66.4-.7733.96-1.3733 1.68-1.8.733-.4267 1.56-.64 2.48-.64.88 0 1.647.1933 2.3.58.653.3867 1.16.9333 1.52 1.64.36.7067.54 1.54.54 2.5 0 .5733-.253.86-.76.86h-5.9c.08.92.34 1.6.78 2.04.44.4267 1.08.64 1.92.64.427 0 .8-.0533 1.12-.16.333-.1067.707-.2533 1.12-.44.4-.2133.693-.32.88-.32zm-3.46-5.58c-.68 0-1.227.2133-1.64.64-.4.4267-.64 1.04-.72 1.84h4.52c-.027-.8133-.227-1.4267-.6-1.84-.373-.4267-.893-.64-1.56-.64zM194.25 30.7134h14.825l-4.538 5.2938c-.105.1228-.184.2645-.232.417-.049.1524-.066.3127-.051.4717.03.3211.191.6172.446.8233.255.2061.584.3053.915.2757.33-.0296.635-.1856.848-.4335l6.25-7.2851c.042-.0579.079-.1188.112-.1821 0-.0607.063-.0971.088-.1579.056-.1392.086-.2874.087-.4371-.001-.1497-.031-.2978-.087-.4371 0-.0607-.063-.0971-.088-.1578-.033-.0633-.07-.1242-.112-.1821l-6.25-7.2851c-.118-.1371-.265-.2473-.432-.3228-.166-.0756-.347-.1146-.531-.1143-.292-.0006-.575.0983-.8.2793-.127.1019-.231.2271-.308.3683-.077.1413-.124.2959-.139.4549-.015.159.002.3194.051.4719.049.1525.128.2942.233.4169l4.538 5.2938H194.25c-.332 0-.649.1279-.884.3556-.234.2277-.366.5365-.366.8585 0 .3221.132.6309.366.8586.235.2277.552.3556.884.3556z" fill="#D5E8FE"/></g><defs><filter id="filter0_d_1175939" x="0" y="0" width="263" height="70" filterUnits="userSpaceOnUse" color-interpolation-filters="sRGB"><feFlood flood-opacity="0" result="BackgroundImageFix"/><feColorMatrix in="SourceAlpha" values="0 0 0 0 0 0 0 0 0 0 0 0 0 0 0 0 0 0 127 0" result="hardAlpha"/><feOffset dy="4"/><feGaussianBlur stdDeviation="2"/><feComposite in2="hardAlpha" operator="out"/><feColorMatrix values="0 0 0 0 0 0 0 0 0 0 0 0 0 0 0 0 0 0 0.25 0"/><feBlend in2="BackgroundImageFix" result="effect1_dropShadow_1175939"/><feBlend in="SourceGraphic" in2="effect1_dropShadow_1175939" result="shape"/></filter></defs></svg>