<svg width="299" height="16" viewBox="0 0 299 16" fill="none" xmlns="http://www.w3.org/2000/svg">
<path d="M2 13L1 4L11 8L2 13Z" fill="#96D5AD"/>
<path d="M21 11.5L29 1L34 12L21 11.5Z" fill="#96D5AD"/>
<path d="M44.5 13L44 2L54 6.5L44.5 13Z" fill="#96D5AD"/>
<path d="M72 2L77 15L63.5 12.5L72 2Z" fill="#96D5AD"/>
<path d="M101 10L89 14L91.5 2L101 10Z" fill="#96D5AD"/>
<path d="M113 13L111 4L119 7L113 13Z" fill="#96D5AD"/>
<path d="M133 15L134.5 2L144 9L133 15Z" fill="#96D5AD"/>
<path d="M155.5 14.5L159.5 2L168.5 12L155.5 14.5Z" fill="#96D5AD"/>
<path d="M180.5 13.5L180 4L190 8L180.5 13.5Z" fill="#96D5AD"/>
<path d="M200 11.5L208 1L213 12L200 11.5Z" fill="#96D5AD"/>
<path d="M223.5 13L223 2L233 7L223.5 13Z" fill="#96D5AD"/>
<path d="M241.5 12.5L250 2L255 15L241.5 12.5Z" fill="#96D5AD"/>
<path d="M268 14L271 2L280 9L268 14Z" fill="#96D5AD"/>
<path d="M292 13L290 4L298 7L292 13Z" fill="#96D5AD"/>
<path d="M2 13L1 4L11 8L2 13Z" stroke="#96D5AD"/>
<path d="M21 11.5L29 1L34 12L21 11.5Z" stroke="#96D5AD"/>
<path d="M44.5 13L44 2L54 6.5L44.5 13Z" stroke="#96D5AD"/>
<path d="M72 2L77 15L63.5 12.5L72 2Z" stroke="#96D5AD"/>
<path d="M101 10L89 14L91.5 2L101 10Z" stroke="#96D5AD"/>
<path d="M113 13L111 4L119 7L113 13Z" stroke="#96D5AD"/>
<path d="M133 15L134.5 2L144 9L133 15Z" stroke="#96D5AD"/>
<path d="M155.5 14.5L159.5 2L168.5 12L155.5 14.5Z" stroke="#96D5AD"/>
<path d="M180.5 13.5L180 4L190 8L180.5 13.5Z" stroke="#96D5AD"/>
<path d="M200 11.5L208 1L213 12L200 11.5Z" stroke="#96D5AD"/>
<path d="M223.5 13L223 2L233 7L223.5 13Z" stroke="#96D5AD"/>
<path d="M241.5 12.5L250 2L255 15L241.5 12.5Z" stroke="#96D5AD"/>
<path d="M268 14L271 2L280 9L268 14Z" stroke="#96D5AD"/>
<path d="M292 13L290 4L298 7L292 13Z" stroke="#96D5AD"/>
</svg>
