<svg width="290" height="70" viewBox="0 0 290 70" fill="none" xmlns="http://www.w3.org/2000/svg">
<g filter="url(#filter0_d_387:3601)">
<rect x="4" y="2" width="282" height="60" rx="23" fill="#854D4F"/>
<rect x="4" width="282" height="60" rx="23" fill="#D66D71"/>
<path d="M72.2 22.58C72.2933 22.3133 72.44 22.1133 72.64 21.98C72.8533 21.8467 73.0867 21.78 73.34 21.78C73.66 21.78 73.9333 21.88 74.16 22.08C74.4 22.28 74.52 22.5467 74.52 22.88C74.52 23 74.4867 23.1733 74.42 23.4L70.12 35.3C70.0133 35.5667 69.8333 35.7733 69.58 35.92C69.34 36.0667 69.0733 36.14 68.78 36.14C68.4867 36.14 68.2133 36.0667 67.96 35.92C67.7067 35.7733 67.5333 35.5667 67.44 35.3L64.12 25.88L60.74 35.3C60.6333 35.5667 60.4533 35.7733 60.2 35.92C59.96 36.0667 59.6933 36.14 59.4 36.14C59.1067 36.14 58.8333 36.0667 58.58 35.92C58.34 35.7733 58.1733 35.5667 58.08 35.3L53.78 23.4C53.7133 23.2 53.68 23.0267 53.68 22.88C53.68 22.5467 53.8 22.28 54.04 22.08C54.2933 21.88 54.5867 21.78 54.92 21.78C55.1867 21.78 55.4267 21.8467 55.64 21.98C55.8533 22.1133 56.0067 22.3133 56.1 22.58L59.5 32.36L63 22.64C63.0933 22.3733 63.2467 22.1667 63.46 22.02C63.6733 21.86 63.9067 21.78 64.16 21.78C64.4133 21.78 64.6467 21.86 64.86 22.02C65.0867 22.1667 65.2467 22.38 65.34 22.66L68.74 32.48L72.2 22.58ZM79.5947 25.98C80.9547 25.98 81.9614 26.32 82.6147 27C83.2814 27.6667 83.6147 28.6867 83.6147 30.06V34.94C83.6147 35.3 83.508 35.5867 83.2947 35.8C83.0814 36 82.788 36.1 82.4147 36.1C82.068 36.1 81.7814 35.9933 81.5547 35.78C81.3414 35.5667 81.2347 35.2867 81.2347 34.94V34.5C81.008 35.02 80.648 35.4267 80.1547 35.72C79.6747 36.0133 79.1147 36.16 78.4747 36.16C77.8214 36.16 77.228 36.0267 76.6947 35.76C76.1614 35.4933 75.7414 35.1267 75.4347 34.66C75.128 34.1933 74.9747 33.6733 74.9747 33.1C74.9747 32.38 75.1547 31.8133 75.5147 31.4C75.888 30.9867 76.488 30.6867 77.3147 30.5C78.1414 30.3133 79.2814 30.22 80.7347 30.22H81.2347V29.76C81.2347 29.1067 81.0947 28.6333 80.8147 28.34C80.5347 28.0333 80.0814 27.88 79.4547 27.88C79.068 27.88 78.6747 27.94 78.2747 28.06C77.8747 28.1667 77.4014 28.3267 76.8547 28.54C76.508 28.7133 76.2547 28.8 76.0947 28.8C75.8547 28.8 75.6547 28.7133 75.4947 28.54C75.348 28.3667 75.2747 28.14 75.2747 27.86C75.2747 27.6333 75.328 27.44 75.4347 27.28C75.5547 27.1067 75.748 26.9467 76.0147 26.8C76.4814 26.5467 77.0347 26.3467 77.6747 26.2C78.328 26.0533 78.968 25.98 79.5947 25.98ZM78.9747 34.36C79.6414 34.36 80.1814 34.14 80.5947 33.7C81.0214 33.2467 81.2347 32.6667 81.2347 31.96V31.54H80.8747C79.9814 31.54 79.288 31.58 78.7947 31.66C78.3014 31.74 77.948 31.88 77.7347 32.08C77.5214 32.28 77.4147 32.5533 77.4147 32.9C77.4147 33.3267 77.5614 33.68 77.8547 33.96C78.1614 34.2267 78.5347 34.36 78.9747 34.36ZM91.2355 34.26C91.9021 34.3 92.2355 34.6 92.2355 35.16C92.2355 35.48 92.1021 35.7267 91.8355 35.9C91.5821 36.06 91.2155 36.1267 90.7355 36.1L90.1955 36.06C87.9555 35.9 86.8355 34.7 86.8355 32.46V28.1H85.8355C85.4755 28.1 85.1955 28.02 84.9955 27.86C84.8088 27.7 84.7155 27.4667 84.7155 27.16C84.7155 26.8533 84.8088 26.62 84.9955 26.46C85.1955 26.3 85.4755 26.22 85.8355 26.22H86.8355V24.38C86.8355 24.02 86.9488 23.7333 87.1755 23.52C87.4021 23.3067 87.7088 23.2 88.0955 23.2C88.4688 23.2 88.7688 23.3067 88.9955 23.52C89.2221 23.7333 89.3355 24.02 89.3355 24.38V26.22H91.0355C91.3955 26.22 91.6688 26.3 91.8555 26.46C92.0555 26.62 92.1555 26.8533 92.1555 27.16C92.1555 27.4667 92.0555 27.7 91.8555 27.86C91.6688 28.02 91.3955 28.1 91.0355 28.1H89.3355V32.64C89.3355 33.6267 89.7888 34.1533 90.6955 34.22L91.2355 34.26ZM97.8783 36.16C96.9049 36.16 96.0449 35.9533 95.2983 35.54C94.5649 35.1267 93.9983 34.54 93.5983 33.78C93.1983 33.02 92.9983 32.1333 92.9983 31.12C92.9983 30.1067 93.2049 29.2133 93.6183 28.44C94.0449 27.6533 94.6383 27.0467 95.3983 26.62C96.1583 26.1933 97.0316 25.98 98.0183 25.98C98.5383 25.98 99.0583 26.0533 99.5783 26.2C100.112 26.3467 100.578 26.5467 100.978 26.8C101.405 27.08 101.618 27.4333 101.618 27.86C101.618 28.1533 101.545 28.3933 101.398 28.58C101.265 28.7533 101.085 28.84 100.858 28.84C100.712 28.84 100.558 28.8067 100.398 28.74C100.238 28.6733 100.078 28.5933 99.9183 28.5C99.6249 28.3267 99.3449 28.1933 99.0783 28.1C98.8116 27.9933 98.5049 27.94 98.1583 27.94C97.3316 27.94 96.6916 28.2133 96.2383 28.76C95.7983 29.2933 95.5783 30.0667 95.5783 31.08C95.5783 32.08 95.7983 32.8533 96.2383 33.4C96.6916 33.9333 97.3316 34.2 98.1583 34.2C98.4916 34.2 98.7849 34.1533 99.0383 34.06C99.3049 33.9533 99.5983 33.8133 99.9183 33.64C100.118 33.52 100.292 33.4333 100.438 33.38C100.585 33.3133 100.732 33.28 100.878 33.28C101.092 33.28 101.272 33.3733 101.418 33.56C101.565 33.7467 101.638 33.98 101.638 34.26C101.638 34.4867 101.585 34.6867 101.478 34.86C101.385 35.02 101.225 35.1667 100.998 35.3C100.585 35.5667 100.105 35.78 99.5583 35.94C99.0116 36.0867 98.4516 36.16 97.8783 36.16ZM109.024 25.98C111.317 25.98 112.464 27.32 112.464 30V34.92C112.464 35.2933 112.351 35.5867 112.124 35.8C111.911 36.0133 111.611 36.12 111.224 36.12C110.837 36.12 110.531 36.0133 110.304 35.8C110.077 35.5867 109.964 35.2933 109.964 34.92V30C109.964 29.2933 109.817 28.78 109.524 28.46C109.244 28.1267 108.797 27.96 108.184 27.96C107.464 27.96 106.884 28.1867 106.444 28.64C106.017 29.0933 105.804 29.7 105.804 30.46V34.92C105.804 35.2933 105.691 35.5867 105.464 35.8C105.237 36.0133 104.931 36.12 104.544 36.12C104.157 36.12 103.851 36.0133 103.624 35.8C103.411 35.5867 103.304 35.2933 103.304 34.92V22.96C103.304 22.6133 103.417 22.3333 103.644 22.12C103.884 21.9067 104.191 21.8 104.564 21.8C104.937 21.8 105.237 21.9 105.464 22.1C105.691 22.3 105.804 22.5733 105.804 22.92V27.58C106.137 27.06 106.577 26.6667 107.124 26.4C107.684 26.12 108.317 25.98 109.024 25.98ZM126.053 25.98C126.893 25.98 127.639 26.1933 128.293 26.62C128.959 27.0467 129.473 27.6533 129.833 28.44C130.206 29.2133 130.393 30.1067 130.393 31.12C130.393 32.1333 130.206 33.02 129.833 33.78C129.473 34.54 128.966 35.1267 128.313 35.54C127.659 35.9533 126.906 36.16 126.053 36.16C125.359 36.16 124.739 36.0133 124.193 35.72C123.646 35.4267 123.226 35.02 122.933 34.5V38.58C122.933 38.9267 122.819 39.2 122.593 39.4C122.366 39.6 122.066 39.7 121.693 39.7C121.319 39.7 121.013 39.5933 120.773 39.38C120.546 39.1667 120.433 38.8867 120.433 38.54V27.2C120.433 26.84 120.539 26.5533 120.753 26.34C120.979 26.1267 121.279 26.02 121.653 26.02C122.026 26.02 122.326 26.1267 122.553 26.34C122.779 26.5533 122.893 26.84 122.893 27.2V27.7C123.186 27.1533 123.606 26.7333 124.153 26.44C124.713 26.1333 125.346 25.98 126.053 25.98ZM125.393 34.22C126.179 34.22 126.793 33.9533 127.233 33.42C127.673 32.8733 127.893 32.1067 127.893 31.12C127.893 30.1067 127.673 29.32 127.233 28.76C126.793 28.2 126.179 27.92 125.393 27.92C124.593 27.92 123.973 28.1933 123.533 28.74C123.106 29.2867 122.893 30.0667 122.893 31.08C122.893 32.08 123.106 32.8533 123.533 33.4C123.973 33.9467 124.593 34.22 125.393 34.22ZM137.905 26.02C138.251 25.9933 138.525 26.0667 138.725 26.24C138.925 26.4133 139.025 26.6733 139.025 27.02C139.025 27.38 138.938 27.6467 138.765 27.82C138.591 27.9933 138.278 28.1067 137.825 28.16L137.225 28.22C136.438 28.3 135.858 28.5667 135.485 29.02C135.125 29.4733 134.945 30.04 134.945 30.72V34.92C134.945 35.3067 134.825 35.6067 134.585 35.82C134.345 36.02 134.045 36.12 133.685 36.12C133.325 36.12 133.025 36.02 132.785 35.82C132.558 35.6067 132.445 35.3067 132.445 34.92V27.18C132.445 26.8067 132.558 26.52 132.785 26.32C133.025 26.12 133.318 26.02 133.665 26.02C134.011 26.02 134.291 26.12 134.505 26.32C134.718 26.5067 134.825 26.78 134.825 27.14V27.94C135.078 27.3533 135.451 26.9 135.945 26.58C136.451 26.26 137.011 26.08 137.625 26.04L137.905 26.02ZM144.365 36.16C143.365 36.16 142.485 35.9533 141.725 35.54C140.979 35.1267 140.399 34.5333 139.985 33.76C139.572 32.9867 139.365 32.0867 139.365 31.06C139.365 30.0333 139.572 29.14 139.985 28.38C140.399 27.6067 140.979 27.0133 141.725 26.6C142.485 26.1867 143.365 25.98 144.365 25.98C145.365 25.98 146.239 26.1867 146.985 26.6C147.745 27.0133 148.325 27.6067 148.725 28.38C149.139 29.14 149.345 30.0333 149.345 31.06C149.345 32.0867 149.139 32.9867 148.725 33.76C148.325 34.5333 147.745 35.1267 146.985 35.54C146.239 35.9533 145.365 36.16 144.365 36.16ZM144.345 34.22C145.159 34.22 145.779 33.9533 146.205 33.42C146.632 32.8867 146.845 32.1 146.845 31.06C146.845 30.0333 146.632 29.2533 146.205 28.72C145.779 28.1733 145.165 27.9 144.365 27.9C143.565 27.9 142.945 28.1733 142.505 28.72C142.079 29.2533 141.865 30.0333 141.865 31.06C141.865 32.1 142.079 32.8867 142.505 33.42C142.932 33.9533 143.545 34.22 144.345 34.22ZM156.431 34.26C157.097 34.3 157.431 34.6 157.431 35.16C157.431 35.48 157.297 35.7267 157.031 35.9C156.777 36.06 156.411 36.1267 155.931 36.1L155.391 36.06C153.151 35.9 152.031 34.7 152.031 32.46V28.1H151.031C150.671 28.1 150.391 28.02 150.191 27.86C150.004 27.7 149.911 27.4667 149.911 27.16C149.911 26.8533 150.004 26.62 150.191 26.46C150.391 26.3 150.671 26.22 151.031 26.22H152.031V24.38C152.031 24.02 152.144 23.7333 152.371 23.52C152.597 23.3067 152.904 23.2 153.291 23.2C153.664 23.2 153.964 23.3067 154.191 23.52C154.417 23.7333 154.531 24.02 154.531 24.38V26.22H156.231C156.591 26.22 156.864 26.3 157.051 26.46C157.251 26.62 157.351 26.8533 157.351 27.16C157.351 27.4667 157.251 27.7 157.051 27.86C156.864 28.02 156.591 28.1 156.231 28.1H154.531V32.64C154.531 33.6267 154.984 34.1533 155.891 34.22L156.431 34.26ZM163.194 36.16C162.194 36.16 161.314 35.9533 160.554 35.54C159.807 35.1267 159.227 34.5333 158.814 33.76C158.4 32.9867 158.194 32.0867 158.194 31.06C158.194 30.0333 158.4 29.14 158.814 28.38C159.227 27.6067 159.807 27.0133 160.554 26.6C161.314 26.1867 162.194 25.98 163.194 25.98C164.194 25.98 165.067 26.1867 165.814 26.6C166.574 27.0133 167.154 27.6067 167.554 28.38C167.967 29.14 168.174 30.0333 168.174 31.06C168.174 32.0867 167.967 32.9867 167.554 33.76C167.154 34.5333 166.574 35.1267 165.814 35.54C165.067 35.9533 164.194 36.16 163.194 36.16ZM163.174 34.22C163.987 34.22 164.607 33.9533 165.034 33.42C165.46 32.8867 165.674 32.1 165.674 31.06C165.674 30.0333 165.46 29.2533 165.034 28.72C164.607 28.1733 163.994 27.9 163.194 27.9C162.394 27.9 161.774 28.1733 161.334 28.72C160.907 29.2533 160.694 30.0333 160.694 31.06C160.694 32.1 160.907 32.8867 161.334 33.42C161.76 33.9533 162.374 34.22 163.174 34.22ZM175.259 34.26C175.926 34.3 176.259 34.6 176.259 35.16C176.259 35.48 176.126 35.7267 175.859 35.9C175.606 36.06 175.239 36.1267 174.759 36.1L174.219 36.06C171.979 35.9 170.859 34.7 170.859 32.46V28.1H169.859C169.499 28.1 169.219 28.02 169.019 27.86C168.832 27.7 168.739 27.4667 168.739 27.16C168.739 26.8533 168.832 26.62 169.019 26.46C169.219 26.3 169.499 26.22 169.859 26.22H170.859V24.38C170.859 24.02 170.972 23.7333 171.199 23.52C171.426 23.3067 171.732 23.2 172.119 23.2C172.492 23.2 172.792 23.3067 173.019 23.52C173.246 23.7333 173.359 24.02 173.359 24.38V26.22H175.059C175.419 26.22 175.692 26.3 175.879 26.46C176.079 26.62 176.179 26.8533 176.179 27.16C176.179 27.4667 176.079 27.7 175.879 27.86C175.692 28.02 175.419 28.1 175.059 28.1H173.359V32.64C173.359 33.6267 173.812 34.1533 174.719 34.22L175.259 34.26ZM184.538 26.74C184.645 26.5 184.785 26.3267 184.958 26.22C185.145 26.1 185.345 26.04 185.558 26.04C185.865 26.04 186.138 26.1467 186.378 26.36C186.631 26.56 186.758 26.8133 186.758 27.12C186.758 27.2667 186.718 27.42 186.638 27.58L181.178 39.02C180.951 39.4733 180.598 39.7 180.118 39.7C179.811 39.7 179.538 39.6 179.298 39.4C179.071 39.2133 178.958 38.9733 178.958 38.68C178.958 38.5333 178.998 38.3667 179.078 38.18L180.438 35.32L176.718 27.58C176.651 27.4467 176.618 27.2933 176.618 27.12C176.618 26.8133 176.745 26.5533 176.998 26.34C177.265 26.1267 177.565 26.02 177.898 26.02C178.125 26.02 178.331 26.08 178.518 26.2C178.705 26.3067 178.851 26.48 178.958 26.72L181.758 32.9L184.538 26.74ZM193.865 25.98C194.705 25.98 195.452 26.1933 196.105 26.62C196.772 27.0467 197.285 27.6533 197.645 28.44C198.019 29.2133 198.205 30.1067 198.205 31.12C198.205 32.1333 198.019 33.02 197.645 33.78C197.285 34.54 196.779 35.1267 196.125 35.54C195.472 35.9533 194.719 36.16 193.865 36.16C193.172 36.16 192.552 36.0133 192.005 35.72C191.459 35.4267 191.039 35.02 190.745 34.5V38.58C190.745 38.9267 190.632 39.2 190.405 39.4C190.179 39.6 189.879 39.7 189.505 39.7C189.132 39.7 188.825 39.5933 188.585 39.38C188.359 39.1667 188.245 38.8867 188.245 38.54V27.2C188.245 26.84 188.352 26.5533 188.565 26.34C188.792 26.1267 189.092 26.02 189.465 26.02C189.839 26.02 190.139 26.1267 190.365 26.34C190.592 26.5533 190.705 26.84 190.705 27.2V27.7C190.999 27.1533 191.419 26.7333 191.965 26.44C192.525 26.1333 193.159 25.98 193.865 25.98ZM193.205 34.22C193.992 34.22 194.605 33.9533 195.045 33.42C195.485 32.8733 195.705 32.1067 195.705 31.12C195.705 30.1067 195.485 29.32 195.045 28.76C194.605 28.2 193.992 27.92 193.205 27.92C192.405 27.92 191.785 28.1933 191.345 28.74C190.919 29.2867 190.705 30.0667 190.705 31.08C190.705 32.08 190.919 32.8533 191.345 33.4C191.785 33.9467 192.405 34.22 193.205 34.22ZM207.997 33.32C208.224 33.32 208.404 33.4067 208.537 33.58C208.684 33.7533 208.757 33.9867 208.757 34.28C208.757 34.6933 208.51 35.04 208.017 35.32C207.564 35.5733 207.05 35.78 206.477 35.94C205.904 36.0867 205.357 36.16 204.837 36.16C203.264 36.16 202.017 35.7067 201.097 34.8C200.177 33.8933 199.717 32.6533 199.717 31.08C199.717 30.08 199.917 29.1933 200.317 28.42C200.717 27.6467 201.277 27.0467 201.997 26.62C202.73 26.1933 203.557 25.98 204.477 25.98C205.357 25.98 206.124 26.1733 206.777 26.56C207.43 26.9467 207.937 27.4933 208.297 28.2C208.657 28.9067 208.837 29.74 208.837 30.7C208.837 31.2733 208.584 31.56 208.077 31.56H202.177C202.257 32.48 202.517 33.16 202.957 33.6C203.397 34.0267 204.037 34.24 204.877 34.24C205.304 34.24 205.677 34.1867 205.997 34.08C206.33 33.9733 206.704 33.8267 207.117 33.64C207.517 33.4267 207.81 33.32 207.997 33.32ZM204.537 27.74C203.857 27.74 203.31 27.9533 202.897 28.38C202.497 28.8067 202.257 29.42 202.177 30.22H206.697C206.67 29.4067 206.47 28.7933 206.097 28.38C205.724 27.9533 205.204 27.74 204.537 27.74Z" fill="white"/>
<path d="M227.287 20.75V35.575L221.993 31.0375C221.87 30.9324 221.728 30.8533 221.576 30.8046C221.423 30.7559 221.263 30.7386 221.104 30.7537C220.783 30.7842 220.487 30.9447 220.281 31.2C220.075 31.4553 219.976 31.7844 220.005 32.1149C220.035 32.4454 220.191 32.7503 220.439 32.9625L227.724 39.2125C227.782 39.2546 227.843 39.2922 227.906 39.325C227.967 39.325 228.003 39.3875 228.064 39.4125C228.203 39.4692 228.351 39.4988 228.501 39.5C228.65 39.4988 228.799 39.4692 228.938 39.4125C228.999 39.4125 229.035 39.35 229.096 39.325C229.159 39.2922 229.22 39.2546 229.278 39.2125L236.563 32.9625C236.7 32.845 236.81 32.6978 236.886 32.5314C236.961 32.3651 237 32.1836 237 32C237.001 31.7079 236.902 31.4249 236.721 31.2C236.619 31.0734 236.494 30.9688 236.352 30.8921C236.211 30.8154 236.057 30.7682 235.897 30.7531C235.738 30.738 235.578 30.7553 235.426 30.8041C235.273 30.8529 235.131 30.9322 235.009 31.0375L229.715 35.575V20.75C229.715 20.4185 229.587 20.1005 229.359 19.8661C229.132 19.6317 228.823 19.5 228.501 19.5C228.179 19.5 227.87 19.6317 227.642 19.8661C227.415 20.1005 227.287 20.4185 227.287 20.75Z" fill="white"/>
</g>
<defs>
<filter id="filter0_d_387:3601" x="0" y="0" width="290" height="70" filterUnits="userSpaceOnUse" color-interpolation-filters="sRGB">
<feFlood flood-opacity="0" result="BackgroundImageFix"/>
<feColorMatrix in="SourceAlpha" type="matrix" values="0 0 0 0 0 0 0 0 0 0 0 0 0 0 0 0 0 0 127 0" result="hardAlpha"/>
<feOffset dy="4"/>
<feGaussianBlur stdDeviation="2"/>
<feComposite in2="hardAlpha" operator="out"/>
<feColorMatrix type="matrix" values="0 0 0 0 0 0 0 0 0 0 0 0 0 0 0 0 0 0 0.25 0"/>
<feBlend mode="normal" in2="BackgroundImageFix" result="effect1_dropShadow_387:3601"/>
<feBlend mode="normal" in="SourceGraphic" in2="effect1_dropShadow_387:3601" result="shape"/>
</filter>
</defs>
</svg>
