<svg width="290" height="78" viewBox="0 0 290 78" fill="none" xmlns="http://www.w3.org/2000/svg"><g filter="url(#filter0_d_3262851)"><rect x="4" y="10" width="282" height="60" rx="23" fill="#854D4F"/><rect x="4" width="282" height="60" rx="23" fill="#D66D71"/><path d="M72.2 22.58c.0933-.2667.24-.4667.44-.6.2133-.1333.4467-.2.7-.2.32 0 .5933.1.82.3.24.2.36.4667.36.8 0 .12-.0333.2933-.1.52l-4.3 11.9c-.1067.2667-.2867.4733-.54.62-.24.1467-.5067.22-.8.22s-.5667-.0733-.82-.22c-.2533-.1467-.4267-.3533-.52-.62l-3.32-9.42-3.38 9.42c-.1067.2667-.2867.4733-.54.62-.24.1467-.5067.22-.8.22s-.5667-.0733-.82-.22c-.24-.1467-.4067-.3533-.5-.62l-4.3-11.9c-.0667-.2-.1-.3733-.1-.52 0-.3333.12-.6.36-.8.2533-.2.5467-.3.88-.3.2667 0 .5067.0667.72.2.2133.1333.3667.3333.46.6l3.4 9.78 3.5-9.72c.0933-.2667.2467-.4733.46-.62.2133-.16.4467-.24.7-.24.2533 0 .4867.08.7.24.2267.1467.3867.36.48.64l3.4 9.82 3.46-9.9zm7.3947 3.4c1.36 0 2.3667.34 3.02 1.02.6667.6667 1 1.6867 1 3.06v4.88c0 .36-.1067.6467-.32.86-.2133.2-.5067.3-.88.3-.3467 0-.6333-.1067-.86-.32-.2133-.2133-.32-.4933-.32-.84v-.44c-.2267.52-.5867.9267-1.08 1.22-.48.2933-1.04.44-1.68.44-.6533 0-1.2467-.1333-1.78-.4-.5333-.2667-.9533-.6333-1.26-1.1-.3067-.4667-.46-.9867-.46-1.56 0-.72.18-1.2867.54-1.7.3733-.4133.9733-.7133 1.8-.9.8267-.1867 1.9667-.28 3.42-.28h.5v-.46c0-.6533-.14-1.1267-.42-1.42-.28-.3067-.7333-.46-1.36-.46-.3867 0-.78.06-1.18.18-.4.1067-.8733.2667-1.42.48-.3467.1733-.6.26-.76.26-.24 0-.44-.0867-.6-.26-.1467-.1733-.22-.4-.22-.68 0-.2267.0533-.42.16-.58.12-.1733.3133-.3333.58-.48.4667-.2533 1.02-.4533 1.66-.6.6533-.1467 1.2933-.22 1.92-.22zm-.62 8.38c.6667 0 1.2067-.22 1.62-.66.4267-.4533.64-1.0333.64-1.74v-.42h-.36c-.8933 0-1.5867.04-2.08.12-.4933.08-.8467.22-1.06.42-.2133.2-.32.4733-.32.82 0 .4267.1467.78.44 1.06.3067.2667.68.4 1.12.4zm12.2608-.1c.6666.04 1 .34 1 .9 0 .32-.1334.5667-.4.74-.2534.16-.62.2267-1.1.2l-.54-.04c-2.24-.16-3.36-1.36-3.36-3.6V28.1h-1c-.36 0-.64-.08-.84-.24-.1867-.16-.28-.3933-.28-.7s.0933-.54.28-.7c.2-.16.48-.24.84-.24h1v-1.84c0-.36.1133-.6467.34-.86.2266-.2133.5333-.32.92-.32.3733 0 .6733.1067.9.32.2266.2133.34.5.34.86v1.84h1.7c.36 0 .6333.08.82.24.2.16.3.3933.3.7s-.1.54-.3.7c-.1867.16-.46.24-.82.24h-1.7v4.54c0 .9867.4533 1.5133 1.36 1.58l.54.04zm6.6428 1.9c-.9734 0-1.8334-.2067-2.58-.62-.7334-.4133-1.3-1-1.7-1.76-.4-.76-.6-1.6467-.6-2.66s.2066-1.9067.62-2.68c.4266-.7867 1.02-1.3933 1.78-1.82.76-.4267 1.6333-.64 2.62-.64.52 0 1.04.0733 1.56.22.5337.1467.9997.3467 1.3997.6.427.28.64.6333.64 1.06 0 .2933-.073.5333-.22.72-.133.1733-.313.26-.54.26-.146 0-.3-.0333-.46-.1-.16-.0667-.32-.1467-.4797-.24-.2934-.1733-.5734-.3067-.84-.4-.2667-.1067-.5734-.16-.92-.16-.8267 0-1.4667.2733-1.92.82-.44.5333-.66 1.3067-.66 2.32 0 1 .22 1.7733.66 2.32.4533.5333 1.0933.8 1.92.8.3333 0 .6266-.0467.88-.14.2666-.1067.56-.2467.88-.42.1997-.12.3737-.2067.5197-.26.147-.0667.294-.1.44-.1.214 0 .394.0933.54.28.147.1867.22.42.22.7 0 .2267-.053.4267-.16.6-.093.16-.253.3067-.48.44-.413.2667-.893.48-1.4397.64-.5467.1467-1.1067.22-1.68.22zm11.1457-10.18c2.293 0 3.44 1.34 3.44 4.02v4.92c0 .3733-.113.6667-.34.88-.213.2133-.513.32-.9.32s-.693-.1067-.92-.32c-.227-.2133-.34-.5067-.34-.88V30c0-.7067-.147-1.22-.44-1.54-.28-.3333-.727-.5-1.34-.5-.72 0-1.3.2267-1.74.68-.427.4533-.64 1.06-.64 1.82v4.46c0 .3733-.113.6667-.34.88-.227.2133-.533.32-.92.32s-.693-.1067-.92-.32c-.213-.2133-.32-.5067-.32-.88V22.96c0-.3467.113-.6267.34-.84.24-.2133.547-.32.92-.32s.673.1.9.3c.227.2.34.4733.34.82v4.66c.333-.52.773-.9133 1.32-1.18.56-.28 1.193-.42 1.9-.42zm17.029 0c.84 0 1.586.2133 2.24.64.666.4267 1.18 1.0333 1.54 1.82.373.7733.56 1.6667.56 2.68s-.187 1.9-.56 2.66c-.36.76-.867 1.3467-1.52 1.76-.654.4133-1.407.62-2.26.62-.694 0-1.314-.1467-1.86-.44-.547-.2933-.967-.7-1.26-1.22v4.08c0 .3467-.114.62-.34.82-.227.2-.527.3-.9.3-.374 0-.68-.1067-.92-.32-.227-.2133-.34-.4933-.34-.84V27.2c0-.36.106-.6467.32-.86.226-.2133.526-.32.9-.32.373 0 .673.1067.9.32.226.2133.34.5.34.86v.5c.293-.5467.713-.9667 1.26-1.26.56-.3067 1.193-.46 1.9-.46zm-.66 8.24c.786 0 1.4-.2667 1.84-.8.44-.5467.66-1.3133.66-2.3 0-1.0133-.22-1.8-.66-2.36-.44-.56-1.054-.84-1.84-.84-.8 0-1.42.2733-1.86.82-.427.5467-.64 1.3267-.64 2.34 0 1 .213 1.7733.64 2.32.44.5467 1.06.82 1.86.82zm12.512-8.2c.346-.0267.62.0467.82.22.2.1733.3.4333.3.78 0 .36-.087.6267-.26.8-.174.1733-.487.2867-.94.34l-.6.06c-.787.08-1.367.3467-1.74.8-.36.4533-.54 1.02-.54 1.7v4.2c0 .3867-.12.6867-.36.9-.24.2-.54.3-.9.3s-.66-.1-.9-.3c-.227-.2133-.34-.5133-.34-.9v-7.74c0-.3733.113-.66.34-.86.24-.2.533-.3.88-.3.346 0 .626.1.84.3.213.1867.32.46.32.82v.8c.253-.5867.626-1.04 1.12-1.36.506-.32 1.066-.5 1.68-.54l.28-.02zm6.46 10.14c-1 0-1.88-.2067-2.64-.62-.746-.4133-1.326-1.0067-1.74-1.78-.413-.7733-.62-1.6733-.62-2.7 0-1.0267.207-1.92.62-2.68.414-.7733.994-1.3667 1.74-1.78.76-.4133 1.64-.62 2.64-.62 1 0 1.874.2067 2.62.62.76.4133 1.34 1.0067 1.74 1.78.414.76.62 1.6533.62 2.68 0 1.0267-.206 1.9267-.62 2.7-.4.7733-.98 1.3667-1.74 1.78-.746.4133-1.62.62-2.62.62zm-.02-1.94c.814 0 1.434-.2667 1.86-.8.427-.5333.64-1.32.64-2.36 0-1.0267-.213-1.8067-.64-2.34-.426-.5467-1.04-.82-1.84-.82s-1.42.2733-1.86.82c-.426.5333-.64 1.3133-.64 2.34 0 1.04.214 1.8267.64 2.36.427.5333 1.04.8 1.84.8zm12.086.04c.666.04 1 .34 1 .9 0 .32-.134.5667-.4.74-.254.16-.62.2267-1.1.2l-.54-.04c-2.24-.16-3.36-1.36-3.36-3.6V28.1h-1c-.36 0-.64-.08-.84-.24-.187-.16-.28-.3933-.28-.7s.093-.54.28-.7c.2-.16.48-.24.84-.24h1v-1.84c0-.36.113-.6467.34-.86.226-.2133.533-.32.92-.32.373 0 .673.1067.9.32.226.2133.34.5.34.86v1.84h1.7c.36 0 .633.08.82.24.2.16.3.3933.3.7s-.1.54-.3.7c-.187.16-.46.24-.82.24h-1.7v4.54c0 .9867.453 1.5133 1.36 1.58l.54.04zm6.763 1.9c-1 0-1.88-.2067-2.64-.62-.747-.4133-1.327-1.0067-1.74-1.78-.414-.7733-.62-1.6733-.62-2.7 0-1.0267.206-1.92.62-2.68.413-.7733.993-1.3667 1.74-1.78.76-.4133 1.64-.62 2.64-.62 1 0 1.873.2067 2.62.62.76.4133 1.34 1.0067 1.74 1.78.413.76.62 1.6533.62 2.68 0 1.0267-.207 1.9267-.62 2.7-.4.7733-.98 1.3667-1.74 1.78-.747.4133-1.62.62-2.62.62zm-.02-1.94c.813 0 1.433-.2667 1.86-.8.426-.5333.64-1.32.64-2.36 0-1.0267-.214-1.8067-.64-2.34-.427-.5467-1.04-.82-1.84-.82s-1.42.2733-1.86.82c-.427.5333-.64 1.3133-.64 2.34 0 1.04.213 1.8267.64 2.36.426.5333 1.04.8 1.84.8zm12.085.04c.667.04 1 .34 1 .9 0 .32-.133.5667-.4.74-.253.16-.62.2267-1.1.2l-.54-.04c-2.24-.16-3.36-1.36-3.36-3.6V28.1h-1c-.36 0-.64-.08-.84-.24-.187-.16-.28-.3933-.28-.7s.093-.54.28-.7c.2-.16.48-.24.84-.24h1v-1.84c0-.36.113-.6467.34-.86.227-.2133.533-.32.92-.32.373 0 .673.1067.9.32.227.2133.34.5.34.86v1.84h1.7c.36 0 .633.08.82.24.2.16.3.3933.3.7s-.1.54-.3.7c-.187.16-.46.24-.82.24h-1.7v4.54c0 .9867.453 1.5133 1.36 1.58l.54.04zm9.279-7.52c.107-.24.247-.4133.42-.52.187-.12.387-.18.6-.18.307 0 .58.1067.82.32.253.2.38.4533.38.76 0 .1467-.04.3-.12.46l-5.46 11.44c-.227.4533-.58.68-1.06.68-.307 0-.58-.1-.82-.3-.227-.1867-.34-.4267-.34-.72 0-.1467.04-.3133.12-.5l1.36-2.86-3.72-7.74c-.067-.1333-.1-.2867-.1-.46 0-.3067.127-.5667.38-.78.267-.2133.567-.32.9-.32.227 0 .433.06.62.18.187.1067.333.28.44.52l2.8 6.18 2.78-6.16zm9.327-.76c.84 0 1.587.2133 2.24.64.667.4267 1.18 1.0333 1.54 1.82.374.7733.56 1.6667.56 2.68s-.186 1.9-.56 2.66c-.36.76-.866 1.3467-1.52 1.76-.653.4133-1.406.62-2.26.62-.693 0-1.313-.1467-1.86-.44-.546-.2933-.966-.7-1.26-1.22v4.08c0 .3467-.113.62-.34.82-.226.2-.526.3-.9.3-.373 0-.68-.1067-.92-.32-.226-.2133-.34-.4933-.34-.84V27.2c0-.36.107-.6467.32-.86.227-.2133.527-.32.9-.32.374 0 .674.1067.9.32.227.2133.34.5.34.86v.5c.294-.5467.714-.9667 1.26-1.26.56-.3067 1.194-.46 1.9-.46zm-.66 8.24c.787 0 1.4-.2667 1.84-.8.44-.5467.66-1.3133.66-2.3 0-1.0133-.22-1.8-.66-2.36-.44-.56-1.053-.84-1.84-.84-.8 0-1.42.2733-1.86.82-.426.5467-.64 1.3267-.64 2.34 0 1 .214 1.7733.64 2.32.44.5467 1.06.82 1.86.82zm14.792-.9c.227 0 .407.0867.54.26.147.1733.22.4067.22.7 0 .4133-.247.76-.74 1.04-.453.2533-.967.46-1.54.62-.573.1467-1.12.22-1.64.22-1.573 0-2.82-.4533-3.74-1.36-.92-.9067-1.38-2.1467-1.38-3.72 0-1 .2-1.8867.6-2.66.4-.7733.96-1.3733 1.68-1.8.733-.4267 1.56-.64 2.48-.64.88 0 1.647.1933 2.3.58.653.3867 1.16.9333 1.52 1.64.36.7067.54 1.54.54 2.5 0 .5733-.253.86-.76.86h-5.9c.08.92.34 1.6.78 2.04.44.4267 1.08.64 1.92.64.427 0 .8-.0533 1.12-.16.333-.1067.707-.2533 1.12-.44.4-.2133.693-.32.88-.32zm-3.46-5.58c-.68 0-1.227.2133-1.64.64-.4.4267-.64 1.04-.72 1.84h4.52c-.027-.8133-.227-1.4267-.6-1.84-.373-.4267-.893-.64-1.56-.64zM227.287 20.75v14.825l-5.294-4.5375c-.123-.1051-.265-.1842-.417-.2329-.153-.0487-.313-.066-.472-.0509-.321.0305-.617.191-.823.4463-.206.2553-.305.5844-.276.9149.03.3305.186.6354.434.8476l7.285 6.25c.058.0421.119.0797.182.1125.061 0 .097.0625.158.0875.139.0567.287.0863.437.0875.149-.0012.298-.0308.437-.0875.061 0 .097-.0625.158-.0875.063-.0328.124-.0704.182-.1125l7.285-6.25c.137-.1175.247-.2647.323-.4311.075-.1663.114-.3478.114-.5314.001-.2921-.098-.5751-.279-.8-.102-.1266-.227-.2312-.369-.3079-.141-.0767-.295-.1239-.455-.139-.159-.0151-.319.0022-.471.051-.153.0488-.295.1281-.417.2334l-5.294 4.5375V20.75c0-.3315-.128-.6495-.356-.8839-.227-.2344-.536-.3661-.858-.3661-.322 0-.631.1317-.859.3661-.227.2344-.355.5524-.355.8839z" fill="#fff"/></g><defs><filter id="filter0_d_3262851" x="0" y="0" width="290" height="78" filterUnits="userSpaceOnUse" color-interpolation-filters="sRGB"><feFlood flood-opacity="0" result="BackgroundImageFix"/><feColorMatrix in="SourceAlpha" values="0 0 0 0 0 0 0 0 0 0 0 0 0 0 0 0 0 0 127 0" result="hardAlpha"/><feOffset dy="4"/><feGaussianBlur stdDeviation="2"/><feComposite in2="hardAlpha" operator="out"/><feColorMatrix values="0 0 0 0 0 0 0 0 0 0 0 0 0 0 0 0 0 0 0.25 0"/><feBlend in2="BackgroundImageFix" result="effect1_dropShadow_3262851"/><feBlend in="SourceGraphic" in2="effect1_dropShadow_3262851" result="shape"/></filter></defs></svg>